<?xml version="1.0" encoding="utf-8"?>
<!-- Generator: Adobe Illustrator 25.2.3, SVG Export Plug-In . SVG Version: 6.00 Build 0)  -->
<svg version="1.1" id="Layer_1" xmlns="http://www.w3.org/2000/svg" xmlns:xlink="http://www.w3.org/1999/xlink" x="0px" y="0px"
	 viewBox="0 0 201.1 36.3" style="enable-background:new 0 0 201.1 36.3;" xml:space="preserve">
<style type="text/css">
	.st0{opacity:0.7;}
	.st1{fill:#474C68;}
	.st2{opacity:0.7;fill:#474C68;enable-background:new    ;}
</style>
<g>
	<g class="st0">
		<path class="st1" d="M73.2,28.4h1.3l0.7,2.6c0.2,0.6,0.3,1.2,0.4,1.8l0,0c0.2-0.6,0.3-1.2,0.4-1.8l0.7-2.6H78L76.4,34h-1.5
			L73.2,28.4z"/>
		<path class="st1" d="M90,32.9h1.3v-3.5H90v-1.1h3.9v1.1h-1.3v3.5h1.3V34H90V32.9z"/>
		<path class="st1" d="M106.6,28.4h1.3v4.5h2.5V34h-3.7v-5.6H106.6z"/>
		<path class="st1" d="M122.5,28.4h1.3l1.2,2.8l0.5,1.2l0,0c-0.1-0.6-0.2-1.4-0.2-2v-2h1.2V34h-1.3l-1.2-2.8l-0.5-1.2l0,0
			c0.1,0.6,0.2,1.4,0.2,2v2h-1.2V28.4z"/>
		<path class="st1" d="M138.9,32.9h1.3v-3.5h-1.3v-1.1h3.9v1.1h-1.3v3.5h1.3V34h-3.9V32.9z"/>
		<path class="st1" d="M155.1,31.8v-3.4h1.3V32c0,0.7,0.2,1,0.8,1c0.5,0,0.8-0.4,0.8-1v-3.6h1.2v3.4c0,1.4-0.7,2.2-2,2.2
			C155.8,34.1,155.1,33.3,155.1,31.8z"/>
		<path class="st1" d="M171.3,33.3l0.7-0.9c0.4,0.3,0.9,0.6,1.5,0.6c0.5,0,0.8-0.2,0.8-0.5c0-0.4-0.3-0.5-0.9-0.7l-0.7-0.3
			c-0.6-0.2-1.2-0.7-1.2-1.5c0-0.9,0.8-1.7,2-1.7c0.7,0,1.3,0.3,1.8,0.7l-0.6,0.8c-0.4-0.3-0.7-0.4-1.3-0.4c-0.4,0-0.7,0.2-0.7,0.5
			s0.4,0.5,0.9,0.7l0.7,0.3c0.7,0.3,1.2,0.7,1.2,1.5c0,0.9-0.8,1.7-2.2,1.7C172.6,34.1,171.9,33.8,171.3,33.3z"/>
	</g>
	<g>
		<path class="st1" d="M19,34.1h15.8V21.6l-13.1,2.1L19,34.1z"/>
		<polygon class="st1" points="20.1,20.4 21.9,7.5 9.1,20.4 		"/>
		<polygon class="st1" points="2.8,2.2 2.8,20.4 22.7,2.2 		"/>
		<polygon class="st1" points="27.3,2.2 22.6,20.4 34.8,20.4 34.8,2.2 		"/>
		<polygon class="st1" points="18.1,34.1 19.6,24 2.8,26.7 2.8,34.1 		"/>
	</g>
	<g>
		<path class="st1" d="M60.7,3.2h1v10h2v2.2h-2v5.9h-2.5v-5.9h-7.6v-1.1L60.7,3.2z M59.3,13.3V8.1l-4.1,5.2H59.3z"/>
		<path class="st1" d="M82,3.4h14.9v2.3h-6.2v15.6h-2.6V5.7H82V3.4z"/>
		<path class="st1" d="M116.4,3.5h10.1v2.3h-7.6v5.5h7.3v2.3h-7.3V19h7.8v2.3h-10.4L116.4,3.5L116.4,3.5z"/>
		<path class="st1" d="M152.2,3.4h1.8l8,18h-2.6l-2.4-5.3h-7.6l-2.2,5.3h-2.6L152.2,3.4z M156,13.8l-2.9-6.5l-2.7,6.5H156z"/>
		<path class="st1" d="M195.3,3.5h2.4v17.9h-2.6v-14l-5.5,6.9h-0.5l-5.6-6.9v13.9H181V3.5h2.4l5.9,7.3L195.3,3.5z"/>
	</g>
	<rect x="184" y="30.3" class="st2" width="14.3" height="1.1"/>
	<rect x="51.7" y="30.3" class="st2" width="14.3" height="1.1"/>
</g>
</svg>
