<?xml version="1.0" encoding="utf-8"?>
<!-- Generator: Adobe Illustrator 25.2.1, SVG Export Plug-In . SVG Version: 6.00 Build 0)  -->
<svg version="1.1" id="Layer_1" xmlns="http://www.w3.org/2000/svg" xmlns:xlink="http://www.w3.org/1999/xlink" x="0px" y="0px"
	 viewBox="0 0 401.4 563.9" style="enable-background:new 0 0 401.4 563.9;" xml:space="preserve">
<g>
	<rect x="277" y="12.4" style="fill-rule:evenodd;clip-rule:evenodd;fill:#8CB9E3;" width="124.4" height="124.4"/>
	<rect x="138.5" y="289.3" style="fill-rule:evenodd;clip-rule:evenodd;fill:#8CB9E3;" width="124.4" height="124.4"/>
	<rect x="0.1" y="12.4" style="fill-rule:evenodd;clip-rule:evenodd;fill:#54B848;" width="124.4" height="124.4"/>
	<rect x="277" y="289.3" style="fill-rule:evenodd;clip-rule:evenodd;fill:#FFD939;" width="124.4" height="124.4"/>
	<rect x="0.1" y="150.9" style="fill-rule:evenodd;clip-rule:evenodd;fill:#EF6C4B;" width="124.4" height="124.4"/>
	<g>
		<polygon style="fill:#F1EFEA;" points="210.8,389.7 191,389.7 186.7,365.6 215.1,365.6 		"/>
		<rect x="183.5" y="359.4" style="fill:#FFFFFF;" width="34.8" height="6.2"/>
		<path style="fill:#394B45;" d="M205.8,351c-4.6,0-8.3,3.7-8.3,8.3h16.7C214.1,354.8,210.4,351,205.8,351z"/>
		<path style="fill:#2A3B34;" d="M191.7,354.6c-2.6,0-4.8,2.1-4.8,4.8h9.6C196.5,356.7,194.4,354.6,191.7,354.6z"/>
		<path style="fill:#71AD50;" d="M206.9,317.1L206.9,317.1c-1.1,0-1.9,0.9-1.9,1.9v40.4h3.8V319C208.8,317.9,208,317.1,206.9,317.1z
			"/>
		<path style="fill:#4F8B45;" d="M201.7,331.1L201.7,331.1c-1.1,0-1.9,0.9-1.9,1.9v26.4h3.8V333
			C203.6,331.9,202.8,331.1,201.7,331.1z"/>
		<path style="fill:#71AD50;" d="M196.5,323.5L196.5,323.5c-1.1,0-1.9,0.9-1.9,1.9v34h3.8v-34C198.5,324.3,197.6,323.5,196.5,323.5z
			"/>
		<path style="fill:#4F8B45;" d="M191.4,328.3L191.4,328.3c-1.1,0-1.9,0.9-1.9,1.9v29.1h3.8v-29.1
			C193.3,329.2,192.4,328.3,191.4,328.3z"/>
	</g>
	<g>
		<g>
			<path style="fill:#F1EFEA;" d="M92.5,190.1L92.5,190.1l-50.7,0l-8.4,40.6h50.7c0.9,0,1.8-0.7,1.9-1.6l7.8-37.4
				C94,190.8,93.4,190.1,92.5,190.1z"/>
			<path style="fill:#FFFFFF;" d="M33.4,230.7L33.4,230.7c-0.9,0-1.5-0.7-1.3-1.6l7.8-37.4c0.2-0.9,1.1-1.6,1.9-1.6l0,0
				c0.9,0,1.5,0.7,1.3,1.6l-7.8,37.4C35.2,230,34.3,230.7,33.4,230.7z"/>
			
				<ellipse transform="matrix(0.7427 -0.6696 0.6696 0.7427 -120.1741 96.1332)" style="fill:#FFFFFF;" cx="65" cy="204.4" rx="5.6" ry="4.6"/>
		</g>
		<path style="fill:#F1EFEA;" d="M53.4,215.7L53.4,215.7l-0.9,4.3l4.3,13.8c0.2,0.6,0.1,1.3-0.3,1.9c-0.4,0.5-1,0.9-1.7,0.9H41v2.1
			h13.8c1.4,0,2.6-0.6,3.4-1.7c0.8-1.1,1-2.5,0.6-3.8L53.4,215.7z"/>
		<path style="fill:#FFFFFF;" d="M76.4,233.2l-5.4-17.6H53.4l5.4,17.6c0.4,1.3,0.2,2.7-0.6,3.8c-0.8,1.1-2.1,1.7-3.4,1.7h17.5
			c1.4,0,2.6-0.6,3.4-1.7C76.5,235.9,76.8,234.5,76.4,233.2z"/>
	</g>
	<g>
		<path id="XMLID_23_" style="fill:#F7CA98;" d="M65.4,105.1L65.4,105.1c-9.3,0-16.9-7.6-16.9-16.9V72.1c0-9.3,7.6-16.9,16.9-16.9
			l0,0c9.3,0,16.9,7.6,16.9,16.9v16.1C82.3,97.6,74.8,105.1,65.4,105.1z"/>
		<path style="fill:#FDD739;" d="M81.1,65.9c0.5,1.2,0.8,2.5,1,3.8v-0.1c0,0.2,0,0.3,0.1,0.5c0,0.2,0,0.3,0.1,0.5c0,0,0,0.1,0,0.1
			c0,0.1,0,0.2,0,0.3c0,0.4,0,0.8,0,1.1v14.5c3-0.7,5.2-3.3,5.2-6.5v-7.6C87.5,69,84.7,66.1,81.1,65.9z"/>
		<path id="XMLID_22_" style="fill:#353236;" d="M66.5,76.5c0,1-0.8,1.8-1.8,1.8s-1.8-0.8-1.8-1.8s0.8-1.8,1.8-1.8
			S66.5,75.5,66.5,76.5z"/>
		<path id="XMLID_21_" style="fill:#CE6E17;" d="M66.7,70.2c-1.6-1.3-3.9-1.3-5.5,0c-0.3,0.2-0.7,0.3-0.9,0.1l0,0
			c-0.3-0.2-0.2-0.7,0.2-1c2-1.7,5-1.7,7.1,0c0.4,0.3,0.4,0.8,0.2,1l0,0C67.4,70.5,67,70.4,66.7,70.2z"/>
		<path id="XMLID_20_" style="fill:#353236;" d="M81,76.5c0,1-0.8,1.8-1.8,1.8c-1,0-1.8-0.8-1.8-1.8s0.8-1.8,1.8-1.8
			C80.2,74.7,81,75.5,81,76.5z"/>
		<path id="XMLID_19_" style="fill:#CE6E17;" d="M81.2,70.2c-1.6-1.3-3.9-1.3-5.5,0c-0.3,0.2-0.7,0.3-0.9,0.1l0,0
			c-0.3-0.2-0.2-0.7,0.2-1c2-1.7,5-1.7,7.1,0c0.4,0.3,0.4,0.8,0.2,1l0,0C81.9,70.5,81.5,70.4,81.2,70.2z"/>
		<path id="XMLID_18_" style="fill:#353236;" d="M56.1,58.1l-9.9-6.9C44,50.8,42,52.5,42,54.8v17.1c0,1.4,0.5,2.8,1.4,3.9l0.2,0.3
			v-1.4c0-1.8,1.4-3.2,3.2-3.2h2.1c6.8-1.6,10.1-5.1,9.1-10.7C57.7,59.7,57.1,58.7,56.1,58.1z"/>
		<path id="XMLID_17_" style="fill:#FFFFFF;" d="M71.1,95.7h-3.5c-1.5,0-2.7-1.2-2.7-2.7v-1.5h8.8v1.5
			C73.7,94.5,72.5,95.7,71.1,95.7z"/>
		<path style="fill:#F2881D;" d="M58.1,108.6h-1.4c-9.5,0-17.2-7.7-17.2-17.2V60.6c0-7.2,5.8-13,13-13h5.6V108.6z"/>
		<g>
			<g>
				<path id="XMLID_16_" style="fill:#F7CA98;" d="M48.6,84.6L48.6,84.6v-13h-2.1c-1.8,0-3.2,1.4-3.2,3.2v4.6
					C43.3,82.2,45.7,84.6,48.6,84.6z"/>
				<path style="fill:#DDB733;" d="M46.8,63.9h0.6c0.6,0,1.1,0.5,1.1,1.1v22.8c0,0.6-0.5,1.1-1.1,1.1h-0.6c-0.6,0-1.1-0.5-1.1-1.1
					V65.1C45.7,64.4,46.2,63.9,46.8,63.9z"/>
				<path style="fill:#FDD739;" d="M43.8,87h1.9V66.1h-1.9c-3.7,0-6.7,3-6.7,6.7v7.6C37.1,84,40.1,87,43.8,87z"/>
				<path style="fill:#FDD739;" d="M43.8,66.1h0.8V52.2c0-1.6,1-2.9,2.4-3.3c0.8-0.9,2.3-2,4.9-2.8h-3.8c-3.4,0-6.2,2.8-6.2,6.2
					v14.1C42.6,66.2,43.2,66.1,43.8,66.1z"/>
				<path style="fill:#DDB733;" d="M44.8,51.4L44.8,51.4c0-0.1,0.1-0.2,0.1-0.4l0,0c0,0,0-0.1,0-0.1c0.1-0.3,0.3-0.6,0.5-0.8l0,0
					c0,0,0,0,0,0c0.1-0.1,0.2-0.3,0.3-0.4c0.1-0.1,0.2-0.1,0.2-0.2c0.1,0,0.1-0.1,0.2-0.1c0.1-0.1,0.3-0.2,0.4-0.3c0,0,0,0,0,0
					c0.2-0.1,0.3-0.2,0.5-0.2c0.1-0.1,0.2-0.2,0.4-0.4c0,0,0,0,0,0c0.4-0.4,0.9-0.8,1.5-1.1l0,0h-0.4c-2.9,0-5.2,2.3-5.2,5.2v13.6
					c0.1,0,0.3,0,0.4,0h0.8V52.2c0-0.2,0-0.5,0.1-0.7C44.7,51.5,44.8,51.4,44.8,51.4z"/>
				<path style="opacity:0.5;fill:#225075;" d="M48.1,84.6c-0.1-0.4-0.5-0.6-0.8-0.5c-0.4,0.1-0.6,0.5-0.5,0.8l1.1,3.9
					c0.4-0.2,0.7-0.6,0.7-1v-1.5L48.1,84.6z"/>
				<g>
					<path style="fill:#FDD739;" d="M62.3,98.2h-3.9c-2.2,0-4.2-1.1-5.3-3l-6.3-10.1c-0.2-0.3-0.1-0.7,0.2-0.9
						c0.3-0.2,0.7-0.1,0.9,0.2l6.3,10.1c0.9,1.5,2.5,2.3,4.2,2.3h3.9c0.4,0,0.7,0.3,0.7,0.7C63,97.9,62.7,98.2,62.3,98.2z"/>
				</g>
			</g>
			<path style="fill:#DDB733;" d="M65.6,99.8h-2.2c-1.2,0-2.2-1-2.2-2.2l0,0c0-1.2,1-2.2,2.2-2.2h2.2c1.2,0,2.2,1,2.2,2.2l0,0
				C67.8,98.8,66.8,99.8,65.6,99.8z"/>
		</g>
		<path id="XMLID_15_" style="fill:#FF931D;" d="M64.1,44.1c-19.4,0-19.2,6.9-19.2,6.9l10.3,7.1c2,1.8,6.7,4.3,10.3,4.3
			c9.6,0,16.8,0.4,16.8,10c0,0,3.8-4.4,3.8-13.3C86,55.6,83.4,44.1,64.1,44.1z"/>
	</g>
	<rect x="277" y="427.1" style="fill-rule:evenodd;clip-rule:evenodd;fill:#54B848;" width="124.4" height="124.4"/>
	<rect y="289.3" style="fill-rule:evenodd;clip-rule:evenodd;fill:#54B848;" width="124.4" height="124.4"/>
	<g>
		<path id="XMLID_14_" style="fill:#F7CA98;" d="M58.2,383.8L58.2,383.8c9.3,0,16.9-7.6,16.9-16.9v-16.1c0-9.3-7.6-16.9-16.9-16.9
			l0,0c-9.3,0-16.9,7.6-16.9,16.9v16.1C41.3,376.2,48.8,383.8,58.2,383.8z"/>
		<path id="XMLID_13_" style="fill:#F7CA98;" d="M75,363.2L75,363.2v-13h2.1c1.8,0,3.2,1.4,3.2,3.2v4.6
			C80.3,360.9,77.9,363.2,75,363.2z"/>
		<path id="XMLID_12_" style="fill:#602C09;" d="M41.3,349.6c0-0.1,0-0.2,0-0.3c0-0.4,0.1-0.7,0.1-1.1V360c0,3.5,1.4,7.8,3.6,10.4
			c0.4,0.4,1.1,0.3,1.2-0.3c0.7-3.4,4-4.7,6.8-4.7h2c3.4,0,6.3,2.3,7.3,5.4c0.2,0.7,1,1,1.6,0.7c4.3-2.1,7.2-6.5,7.2-11.5v-19.9
			c0.3,0.3,0.6,0.7,0.8,1.1c0,0,0,0,0,0c0,0,0,0,0,0c0.2,0.4,0.5,0.7,0.7,1.1c0,0.1,0.1,0.1,0.1,0.2c0.2,0.4,0.4,0.7,0.6,1.1
			c0,0,0,0,0,0c0,0,0,0.1,0.1,0.1c0.2,0.4,0.4,0.8,0.5,1.2l0,0c0,0,0,0,0,0c0.2,0.4,0.3,0.8,0.4,1.3c0,0,0,0,0,0c0,0,0,0.1,0,0.1
			c0.1,0.4,0.2,0.8,0.3,1.3c0,0,0,0,0,0c0,0.1,0,0.1,0,0.2c0.1,0.4,0.1,0.8,0.2,1.3c0,0,0,0,0,0c0,0.1,0,0.1,0,0.2
			c0,0.4,0.1,1.1,0.1,1.6v15.9c0,0.1,0,0.1,0,0.2c0,0.4,0,0.7-0.1,1.1c0,0.1,0,0.1,0,0.2c0,0,0,0,0,0c0,0.4-0.1,0.8-0.2,1.2
			c0,0.1,0,0.1,0,0.2c0,0,0,0,0,0.1c-0.1,0.4-0.2,0.8-0.3,1.2c0,0,0,0,0,0c-0.1,0.4-0.2,0.8-0.4,1.2c0,0.1,0,0.1-0.1,0.2
			c-0.1,0.4-0.3,0.8-0.4,1.1c0,0.1,0,0.1-0.1,0.2c-0.3,0.8-0.8,1.5-1.2,2.2c0,0,0,0.1-0.1,0.1c-0.2,0.3-0.5,0.7-0.7,1l0,0
			c-0.4,0.5-0.8,1-1.3,1.5c-0.5,0.5-1,1-1.5,1.4l0,0l-0.5,0.4c-0.5,0.4-1.1,0.8-1.7,1.1l0,0c-1.2,0.7-2.4,1.2-3.8,1.6
			c-0.7,0.2-1.4,0.4-2.2,0.5c0,0-0.1,0-0.1,0c-0.3,0-0.6,0.1-0.9,0.1c-0.1,0-0.2,0-0.3,0c-0.4,0-0.7,0-1.1,0c-0.3,0-0.6,0-0.9,0
			c-0.1,0-0.2,0-0.3,0c-0.2,0-0.4,0-0.6-0.1c-0.1,0-0.2,0-0.3,0c-0.2,0-0.4,0-0.6-0.1c-0.1,0-0.2,0-0.3-0.1c-0.2,0-0.4-0.1-0.5-0.1
			c-0.1,0-0.2,0-0.3-0.1c-0.2,0-0.4-0.1-0.5-0.1c-0.1,0-0.2-0.1-0.3-0.1c-0.2-0.1-0.4-0.1-0.5-0.2c-0.1,0-0.2-0.1-0.3-0.1
			c-0.2-0.1-0.4-0.1-0.6-0.2c-0.1,0-0.2-0.1-0.2-0.1c-0.2-0.1-0.4-0.2-0.6-0.3c-0.1,0-0.1-0.1-0.2-0.1c-0.2-0.1-0.4-0.2-0.7-0.3
			c0,0-0.1,0-0.1,0c-1.8-1-3.4-2.3-4.8-3.8c-1.3-1.5-2.3-3.2-3-5c0,0,0-0.1,0-0.1c-0.2-0.4-0.3-0.9-0.4-1.3c0-0.1,0-0.1,0-0.2
			c-0.1-0.4-0.2-0.9-0.3-1.3c0-0.1,0-0.1,0-0.2c-0.1-0.5-0.1-0.9-0.2-1.4c0,0,0-0.1,0-0.1c0-0.5-0.1-1-0.1-1.5v-16.1
			C41.3,350.4,41.3,350,41.3,349.6z"/>
		<path style="fill:#FDD739;" d="M42.5,344.6c-0.5,1.2-0.8,2.5-1,3.8v-0.1c0,0.2,0,0.3-0.1,0.5c0,0.2,0,0.3-0.1,0.5c0,0,0,0.1,0,0.1
			c0,0.1,0,0.2,0,0.3c0,0.4,0,0.8,0,1.1v14.5c-3-0.7-5.2-3.3-5.2-6.5v-7.6C36.1,347.6,38.9,344.7,42.5,344.6z"/>
		<path id="XMLID_11_" style="fill:#353236;" d="M57.1,355.1c0,1,0.8,1.8,1.8,1.8c1,0,1.8-0.8,1.8-1.8c0-1-0.8-1.8-1.8-1.8
			C57.9,353.3,57.1,354.1,57.1,355.1z"/>
		<path id="XMLID_10_" style="fill:#353236;" d="M56.9,348.8c1.6-1.3,3.9-1.3,5.5,0c0.3,0.2,0.7,0.3,0.9,0.1l0,0
			c0.3-0.2,0.2-0.7-0.2-1c-2-1.7-5-1.7-7.1,0c-0.4,0.3-0.4,0.8-0.2,1l0,0C56.2,349.1,56.6,349.1,56.9,348.8z"/>
		<path id="XMLID_9_" style="fill:#353236;" d="M42.6,355.1c0,1,0.8,1.8,1.8,1.8c1,0,1.8-0.8,1.8-1.8c0-1-0.8-1.8-1.8-1.8
			C43.4,353.3,42.6,354.1,42.6,355.1z"/>
		<path id="XMLID_8_" style="fill:#353236;" d="M42.4,348.8c1.6-1.3,3.9-1.3,5.5,0c0.3,0.2,0.7,0.3,0.9,0.1l0,0
			c0.3-0.2,0.2-0.7-0.2-1c-2-1.7-5-1.7-7.1,0c-0.4,0.3-0.4,0.8-0.2,1l0,0C41.7,349.1,42.1,349.1,42.4,348.8z"/>
		<path id="XMLID_7_" style="fill:#602C09;" d="M67.5,336.7l9.9-6.9c2.2-0.4,4.2,1.3,4.2,3.5v17.1c0,1.4-0.5,2.8-1.4,3.9l-0.2,0.3
			v-1.4c0-1.8-1.4-3.2-3.2-3.2h-2.1c-6.8-1.6-10.1-5.1-9.1-10.7C65.9,338.4,66.5,337.4,67.5,336.7z"/>
		<path id="XMLID_6_" style="fill:#703408;" d="M59,323.1c18.9,0,18.7,6.7,18.7,6.7l-10,6.9c-2,1.8-6.5,4.2-10,4.2
			c-9.3,0-16.3,0.4-16.3,9.8c0,0-3.7-4.3-3.7-13C37.6,334.3,40.1,323.1,59,323.1z"/>
		<path id="XMLID_2_" style="fill:#225075;" d="M38.1,350.2v5.2c0,3.4,2.8,6.2,6.2,6.2h1.8c3.4,0,6.2-2.8,6.2-6.2v-4h1.4v4
			c0,3.4,2.8,6.2,6.2,6.2h1.8c3.4,0,6.2-2.8,6.2-6.2v-4h7.3v-1.2h-7.3h-0.6H54.3h-0.6h-1.4h-0.6H38.1z M54.9,351.4h11.7v4
			c0,2.7-2.2,5-5,5h-1.8c-2.7,0-5-2.2-5-5V351.4z M39.3,351.4h11.7v4c0,2.7-2.2,5-5,5h-1.8c-2.7,0-5-2.2-5-5V351.4z"/>
		<path id="XMLID_1_" style="fill:#FFFFFF;" d="M52.5,374.4H56c1.5,0,2.7-1.2,2.7-2.7v-1.5h-8.8v1.5
			C49.9,373.2,51.1,374.4,52.5,374.4z"/>
		<path style="fill:#DDB733;" d="M76.8,342.6h-0.6c-0.6,0-1.1,0.5-1.1,1.1v22.8c0,0.6,0.5,1.1,1.1,1.1h0.6c0.6,0,1.1-0.5,1.1-1.1
			v-22.8C77.9,343.1,77.4,342.6,76.8,342.6z"/>
		<path style="fill:#FDD739;" d="M79.8,365.7h-1.9v-20.9h1.9c3.7,0,6.7,3,6.7,6.7v7.6C86.5,362.7,83.5,365.7,79.8,365.7z"/>
		<path style="fill:#FDD739;" d="M79.8,344.7H79v-13.9c0-1.6-1-2.9-2.4-3.3c-0.8-0.9-2.3-2-4.9-2.8h3.8c3.4,0,6.2,2.8,6.2,6.2V345
			C81,344.8,80.4,344.7,79.8,344.7z"/>
		<path style="fill:#DDB733;" d="M78.8,330L78.8,330c0-0.1-0.1-0.2-0.1-0.4l0,0c0,0,0-0.1,0-0.1c-0.1-0.3-0.3-0.6-0.5-0.8l0,0
			c0,0,0,0,0,0c-0.1-0.1-0.2-0.3-0.3-0.4c-0.1-0.1-0.2-0.1-0.2-0.2c-0.1,0-0.1-0.1-0.2-0.1c-0.1-0.1-0.3-0.2-0.4-0.3c0,0,0,0,0,0
			c-0.2-0.1-0.3-0.2-0.5-0.2c-0.1-0.1-0.2-0.2-0.4-0.4c0,0,0,0,0,0c-0.4-0.4-0.9-0.8-1.5-1.1l0,0H75c2.9,0,5.2,2.3,5.2,5.2v13.6
			c-0.1,0-0.3,0-0.4,0H79v-13.9c0-0.2,0-0.5-0.1-0.7C78.9,330.1,78.8,330,78.8,330z"/>
		<path style="opacity:0.5;fill:#225075;" d="M75.5,363.2c0.1-0.4,0.5-0.6,0.8-0.5c0.4,0.1,0.6,0.5,0.5,0.8l-1.1,3.9
			c-0.4-0.2-0.7-0.6-0.7-1V365L75.5,363.2z"/>
		<g>
			<path style="fill:#FDD739;" d="M61.3,376.9h3.9c2.2,0,4.2-1.1,5.3-3l6.3-10.1c0.2-0.3,0.1-0.7-0.2-0.9c-0.3-0.2-0.7-0.1-0.9,0.2
				l-6.3,10.1c-0.9,1.5-2.5,2.3-4.2,2.3h-3.9c-0.4,0-0.7,0.3-0.7,0.7C60.6,376.6,60.9,376.9,61.3,376.9z"/>
		</g>
		<path style="fill:#DDB733;" d="M58,378.4h2.2c1.2,0,2.2-1,2.2-2.2l0,0c0-1.2-1-2.2-2.2-2.2H58c-1.2,0-2.2,1-2.2,2.2l0,0
			C55.8,377.4,56.8,378.4,58,378.4z"/>
	</g>
	<path id="move_1_" style="fill:#D6D4D2;" d="M39.8,218.5c-0.7,0-1.6-0.3-2.2-0.8l-14.6-12.6l4.3-5.1l9.2,7.9v-23.2h6.7v23.2
		l9.1-7.8l4.3,5.1l-1,0.9c-0.1,0.1-10,8.6-13.3,11.4c-0.3,0.2-0.4,0.3-0.4,0.3C41.5,218.2,40.7,218.5,39.8,218.5z"/>
	<path style="fill:#9E9E9E;" d="M53.2,509.8H70v-13.3l-13.9,2.2L53.2,509.8z M42.7,495.2l13.6-13.6l-1.9,13.6H42.7z M57.1,475.9
		L36,495.2v-19.4H57.1z M70,475.9v19.4H57l5-19.4H70z M36,509.8v-7.9l17.8-2.8l-1.5,10.7H36z M38.8,512.5H39v2.2h0.4v0.5H39v1.3
		h-0.6v-1.3h-1.7V515L38.8,512.5z M38.5,514.7v-1.2l-0.9,1.2H38.5z M43.6,512.5h3.3v0.5h-1.4v3.5h-0.6V513h-1.4V512.5z M51.3,512.5
		h2.3v0.5h-1.7v1.2h1.6v0.5h-1.6v1.2h1.8v0.5h-2.3V512.5z M59.3,512.5h0.4l1.8,4h-0.6l-0.5-1.2h-1.7l-0.5,1.2h-0.6L59.3,512.5z
		 M60.1,514.8l-0.6-1.5l-0.6,1.5H60.1z M68.9,512.5h0.5v4h-0.6v-3.1l-1.2,1.5h-0.1l-1.2-1.5v3.1h-0.6v-4h0.5l1.3,1.6L68.9,512.5z
		 M89.3,490h-10v-2.4l3.4-3.4c1-1,1.6-1.7,1.9-2.1c0.3-0.4,0.5-0.7,0.6-0.9c0.1-0.3,0.2-0.5,0.2-0.8c0-0.4-0.1-0.6-0.3-0.8
		c-0.2-0.2-0.6-0.3-1-0.3c-0.4,0-0.9,0.1-1.3,0.4c-0.4,0.2-0.9,0.6-1.5,1.1l-2-2.4c0.7-0.6,1.3-1.1,1.8-1.4c0.5-0.3,1-0.5,1.6-0.6
		c0.6-0.1,1.2-0.2,1.9-0.2c0.9,0,1.7,0.2,2.4,0.5c0.7,0.3,1.2,0.8,1.6,1.3c0.4,0.6,0.6,1.2,0.6,1.9c0,0.5-0.1,1-0.2,1.5
		s-0.3,0.9-0.6,1.3c-0.3,0.4-0.7,0.9-1.1,1.4c-0.5,0.5-1.5,1.4-3,2.8v0.1h5.2V490z M101.2,483.1c0,2.4-0.4,4.2-1.2,5.3
		c-0.8,1.1-2.1,1.7-3.7,1.7c-1.6,0-2.9-0.6-3.7-1.8c-0.8-1.2-1.2-2.9-1.2-5.3c0-2.4,0.4-4.2,1.2-5.4c0.8-1.1,2.1-1.7,3.7-1.7
		c1.6,0,2.9,0.6,3.7,1.8C100.8,479,101.2,480.8,101.2,483.1z M95,483.1c0,1.6,0.1,2.6,0.3,3.2c0.2,0.6,0.5,0.9,1,0.9
		c0.5,0,0.8-0.3,1-0.9c0.2-0.6,0.3-1.7,0.3-3.2c0-1.5-0.1-2.6-0.3-3.2c-0.2-0.6-0.5-0.9-1-0.9c-0.5,0-0.8,0.3-1,0.9
		C95.1,480.5,95,481.6,95,483.1z M114.4,481.3l2.4-5.1h4l-4.5,8.4v5.4h-3.7v-5.3l-4.5-8.5h4L114.4,481.3z M131,490h-8.2v-13.7h8.2v3
		h-4.4v2.2h4.1v3h-4.1v2.6h4.4V490z M142.4,490l-0.7-2.6h-4.5l-0.7,2.6h-4.1l4.5-13.8h4.9l4.5,13.8H142.4z M141,484.4l-0.6-2.3
		c-0.1-0.5-0.3-1.1-0.5-1.9c-0.2-0.8-0.3-1.4-0.4-1.7c-0.1,0.3-0.2,0.8-0.3,1.6c-0.2,0.7-0.5,2.2-1.1,4.3H141z M152.3,485v5h-3.7
		v-13.7h4.5c3.7,0,5.6,1.4,5.6,4.1c0,1.6-0.8,2.8-2.3,3.7l4,6h-4.2l-2.9-5H152.3z M152.3,482.2h0.7c1.3,0,1.9-0.6,1.9-1.7
		c0-0.9-0.6-1.4-1.9-1.4h-0.7V482.2z M171.1,485.8c0,0.9-0.2,1.6-0.6,2.3c-0.4,0.7-1.1,1.2-1.9,1.5c-0.8,0.4-1.8,0.5-2.9,0.5
		c-0.9,0-1.7-0.1-2.3-0.2c-0.6-0.1-1.3-0.4-1.9-0.7V486c0.7,0.4,1.4,0.6,2.2,0.9c0.8,0.2,1.5,0.3,2.1,0.3c0.6,0,1-0.1,1.2-0.3
		s0.4-0.4,0.4-0.7c0-0.2-0.1-0.4-0.2-0.5c-0.1-0.1-0.3-0.3-0.5-0.4c-0.2-0.1-0.8-0.4-1.8-0.9c-0.9-0.4-1.6-0.8-2-1.2
		c-0.4-0.4-0.8-0.8-1-1.3c-0.2-0.5-0.3-1.1-0.3-1.8c0-1.3,0.5-2.3,1.4-3c0.9-0.7,2.2-1.1,3.8-1.1c1.4,0,2.9,0.3,4.3,1l-1.1,2.9
		c-1.3-0.6-2.4-0.9-3.3-0.9c-0.5,0-0.8,0.1-1.1,0.3c-0.2,0.2-0.3,0.4-0.3,0.6c0,0.3,0.1,0.5,0.4,0.7c0.3,0.2,1,0.6,2.3,1.2
		c1.2,0.5,2,1.1,2.5,1.7C170.9,484.1,171.1,484.9,171.1,485.8z M80.3,509.3v-13.7H84v13.7H80.3z M100.6,509.3h-4.9l-5-9.7h-0.1
		c0.1,1.5,0.2,2.7,0.2,3.5v6.2h-3.3v-13.7h4.8l5,9.5h0.1c-0.1-1.4-0.1-2.5-0.1-3.3v-6.2h3.3V509.3z M109.7,495.6h4.8
		c1.9,0,3.3,0.3,4.2,0.8c0.9,0.6,1.4,1.4,1.4,2.6c0,0.8-0.2,1.4-0.6,2c-0.4,0.5-0.9,0.9-1.6,1.1v0.1c0.9,0.2,1.5,0.6,1.9,1.1
		c0.4,0.5,0.6,1.2,0.6,2c0,1.2-0.5,2.2-1.4,2.9c-0.9,0.7-2.2,1.1-3.8,1.1h-5.3V495.6z M113.4,500.8h1.1c0.5,0,0.9-0.1,1.2-0.3
		s0.4-0.5,0.4-1c0-0.8-0.6-1.2-1.7-1.2h-1V500.8z M113.4,503.6v2.9h1.3c1.2,0,1.7-0.5,1.7-1.5c0-0.5-0.2-0.8-0.5-1.1
		s-0.8-0.4-1.3-0.4H113.4z M134.9,495.6v8.3c0,1.8-0.5,3.2-1.5,4.2c-1,1-2.5,1.5-4.4,1.5c-1.9,0-3.3-0.5-4.3-1.4
		c-1-1-1.5-2.3-1.5-4.1v-8.4h3.7v8.1c0,1,0.2,1.7,0.5,2.1c0.4,0.4,0.9,0.7,1.6,0.7c0.8,0,1.3-0.2,1.6-0.7c0.3-0.4,0.5-1.1,0.5-2.1
		v-8H134.9z M147.4,505.1c0,0.9-0.2,1.6-0.6,2.3c-0.4,0.7-1.1,1.2-1.9,1.5c-0.8,0.4-1.8,0.5-2.9,0.5c-0.9,0-1.7-0.1-2.3-0.2
		c-0.6-0.1-1.3-0.4-1.9-0.7v-3.3c0.7,0.4,1.4,0.6,2.2,0.9c0.8,0.2,1.5,0.3,2.1,0.3c0.6,0,1-0.1,1.2-0.3s0.4-0.4,0.4-0.7
		c0-0.2-0.1-0.4-0.2-0.5c-0.1-0.1-0.3-0.3-0.5-0.4c-0.2-0.1-0.8-0.4-1.8-0.9c-0.9-0.4-1.6-0.8-2-1.2c-0.4-0.4-0.8-0.8-1-1.3
		c-0.2-0.5-0.3-1.1-0.3-1.8c0-1.3,0.5-2.3,1.4-3c0.9-0.7,2.2-1.1,3.8-1.1c1.4,0,2.9,0.3,4.3,1l-1.1,2.9c-1.3-0.6-2.4-0.9-3.3-0.9
		c-0.5,0-0.8,0.1-1.1,0.3c-0.2,0.2-0.3,0.4-0.3,0.6c0,0.3,0.1,0.5,0.4,0.7c0.3,0.2,1,0.6,2.3,1.2c1.2,0.5,2,1.1,2.5,1.7
		C147.2,503.4,147.4,504.2,147.4,505.1z M150.1,509.3v-13.7h3.7v13.7H150.1z M170.4,509.3h-4.9l-5-9.7h-0.1c0.1,1.5,0.2,2.7,0.2,3.5
		v6.2h-3.3v-13.7h4.8l5,9.5h0.1c-0.1-1.4-0.1-2.5-0.1-3.3v-6.2h3.3V509.3z M182.1,509.3H174v-13.7h8.2v3h-4.4v2.2h4.1v3h-4.1v2.6
		h4.4V509.3z M194.1,505.1c0,0.9-0.2,1.6-0.6,2.3c-0.4,0.7-1.1,1.2-1.9,1.5c-0.8,0.4-1.8,0.5-2.9,0.5c-0.9,0-1.7-0.1-2.3-0.2
		c-0.6-0.1-1.3-0.4-1.9-0.7v-3.3c0.7,0.4,1.4,0.6,2.2,0.9c0.8,0.2,1.5,0.3,2.1,0.3c0.6,0,1-0.1,1.2-0.3s0.4-0.4,0.4-0.7
		c0-0.2-0.1-0.4-0.2-0.5c-0.1-0.1-0.3-0.3-0.5-0.4c-0.2-0.1-0.8-0.4-1.8-0.9c-0.9-0.4-1.6-0.8-2-1.2c-0.4-0.4-0.8-0.8-1-1.3
		c-0.2-0.5-0.3-1.1-0.3-1.8c0-1.3,0.5-2.3,1.4-3c0.9-0.7,2.2-1.1,3.8-1.1c1.4,0,2.9,0.3,4.3,1l-1.1,2.9c-1.3-0.6-2.4-0.9-3.3-0.9
		c-0.5,0-0.8,0.1-1.1,0.3c-0.2,0.2-0.3,0.4-0.3,0.6c0,0.3,0.1,0.5,0.4,0.7c0.3,0.2,1,0.6,2.3,1.2c1.2,0.5,2,1.1,2.5,1.7
		C193.9,503.4,194.1,504.2,194.1,505.1z M205.8,505.1c0,0.9-0.2,1.6-0.6,2.3c-0.4,0.7-1.1,1.2-1.9,1.5c-0.8,0.4-1.8,0.5-2.9,0.5
		c-0.9,0-1.7-0.1-2.3-0.2c-0.6-0.1-1.3-0.4-1.9-0.7v-3.3c0.7,0.4,1.4,0.6,2.2,0.9c0.8,0.2,1.5,0.3,2.1,0.3c0.6,0,1-0.1,1.2-0.3
		s0.4-0.4,0.4-0.7c0-0.2-0.1-0.4-0.2-0.5c-0.1-0.1-0.3-0.3-0.5-0.4c-0.2-0.1-0.8-0.4-1.8-0.9c-0.9-0.4-1.6-0.8-2-1.2
		c-0.4-0.4-0.8-0.8-1-1.3c-0.2-0.5-0.3-1.1-0.3-1.8c0-1.3,0.5-2.3,1.4-3c0.9-0.7,2.2-1.1,3.8-1.1c1.4,0,2.9,0.3,4.3,1l-1.1,2.9
		c-1.3-0.6-2.4-0.9-3.3-0.9c-0.5,0-0.8,0.1-1.1,0.3c-0.2,0.2-0.3,0.4-0.3,0.6c0,0.3,0.1,0.5,0.4,0.7c0.3,0.2,1,0.6,2.3,1.2
		c1.2,0.5,2,1.1,2.5,1.7C205.6,503.4,205.8,504.2,205.8,505.1z"/>
	<g>
		<g>
			<path style="fill:#F7CA98;" d="M367,491.8c0.8,0.8,1.4,2,1.4,3.3c0,2.1-1.3,3.8-3,4.3c0.8,0.7,1.3,1.8,1.3,3.1v0.1
				c0,1.8-1.1,3.4-2.7,3.9c0.9,0.8,1.4,1.9,1.4,3.3v0.4c0,2.3-1.7,4.2-3.8,4.2h-21.1c0,0-5.7,0-6.7-1.3c-0.7-0.9-2-1.6-2.8-2.1
				c-0.4-0.2-0.8-0.4-0.8-0.4h-6.5v-22.4c0,0,5.7-0.4,9.2-2.2c0.6-0.3,1.2-0.7,1.6-1.2c2.8-2.8,7.1-10.8,7.7-14.9
				c0.6-4.1-0.5-7,0-9.1c0.5-2.1,7.5-3.6,9.7,7.5c0.9,4.8,0.6,8.8,0,11.7c-0.1,0.6-0.3,1.2-0.4,1.8h13.8c0.9,0,1.8,0.3,2.5,0.8
				c1.3,0.9,2.2,2.5,2.2,4.4C370,489.2,368.7,491.1,367,491.8z"/>
			<path style="opacity:0.5;fill:#FEC997;" d="M332.9,486l-2,25c-0.4-0.2-0.8-0.4-0.8-0.4h-6.5v-22.4
				C323.7,488.2,329.4,487.9,332.9,486z"/>
			<path style="fill:#606060;" d="M329.3,486.2v26.1c0,1.2-1,2.2-2.2,2.2h-17.5c-1.4,0-2.4-1.2-2.1-2.6l2.2-12.7l2.3-13.4
				c0.2-1,1.1-1.8,2.1-1.8h13C328.3,484,329.3,485,329.3,486.2z"/>
			<path style="opacity:0.3;fill:#184984;" d="M308.4,506.6l-0.9,5.2c-0.2,1.3,0.8,2.6,2.1,2.6h17.5c1.2,0,2.2-1,2.2-2.2v-5.6H308.4
				z"/>
			<circle style="opacity:0.3;fill:#184984;" cx="315.1" cy="508" r="2.4"/>
			<circle style="fill:#606060;" cx="314.5" cy="507.7" r="2.4"/>
			<path style="opacity:0.3;fill:#398496;" d="M315.4,505.5c0.3,0.3,0.5,0.8,0.5,1.3c0,1.1-0.9,2-2,2c-0.8,0-1.4-0.4-1.8-1.1
				c0,0,0,0,0,0c0,1.3,1.1,2.4,2.4,2.4c1.3,0,2.4-1.1,2.4-2.4C316.9,506.7,316.3,505.9,315.4,505.5z"/>
			<path style="fill:#FFFFFF;" d="M314.3,506c0.2,0.2,0.1,0.7-0.2,1c-0.3,0.3-0.8,0.4-1,0.1c-0.2-0.2-0.1-0.7,0.2-1
				C313.7,505.9,314.1,505.8,314.3,506z"/>
		</g>
	</g>
	<g>
		<path style="fill:#EDEDED;" d="M371.6,75.3c-0.4,0-0.7,0-1.1,0.1c-2-4-6.1-6.8-10.9-6.8c-1,0-2,0.1-2.9,0.4
			c-0.3-9.4-7.9-16.9-17.4-16.9c-9.5,0-17.2,7.6-17.4,17.1c-1.2-0.4-2.5-0.6-3.8-0.6c-6.7,0-12.2,5.5-12.2,12.2c0,0.2,0,0.4,0,0.7
			c0,0,0,0,0,0c-3.2,0-5.8,2.6-5.8,5.8c0,3.2,2.6,5.8,5.8,5.8h65.6c4.9,0,8.8-4,8.8-8.8C380.4,79.2,376.4,75.3,371.6,75.3z"/>
		<path style="fill:#F5F5F5;" d="M329.4,72.7c-1.7-1.4-4.3-1.6-6.2-0.5c-1.9,1.1-3,3.4-2.7,5.6c0.7-1.7,2-2.9,3.5-3.8
			C325.6,73,327.6,72.6,329.4,72.7z"/>
		<path style="fill:#F5F5F5;" d="M308,74c1.4-1.3,3.1-2.4,5-2.9c3.8-1,8,0,10.8,2.7c-0.4-5.8,1.8-11.8,5.9-15.8
			c4.1-4.1,10.5-5.9,16-4.2c1.9,0.6,3.6,1.6,5.2,2.7c-3.1-2.8-7.2-4.5-11.7-4.5c-9.5,0-17.2,7.6-17.4,17.1c-1.2-0.4-2.5-0.6-3.8-0.6
			C313.9,68.6,310.2,70.7,308,74z"/>
		<path style="fill:#F5F5F5;" d="M380.4,84.1c0-4.9-4-8.8-8.8-8.8c-0.4,0-0.7,0-1.1,0.1c-2-4-6.1-6.8-10.9-6.8c-1,0-1.9,0.1-2.8,0.3
			c-3.1,1.3-5.8,3.6-7.5,6.5c2.5-3.2,6.6-4.8,10.5-4.3c4,0.5,7.6,3.2,9.2,6.9c2.4-0.8,5.1-0.1,7,1.6c1.9,1.6,3,4.2,3.1,6.7
			c0,0.9-0.1,1.8-0.2,2.7C379.8,87.6,380.4,85.9,380.4,84.1z"/>
	</g>
	<g>
		<g>
			<g>
				<g>
					<g>
						<g>
							<path style="opacity:0.7;fill-rule:evenodd;clip-rule:evenodd;fill:#2D2D2D;" d="M313.6,332c-0.9,3.9-1.7,7.8-2.6,11.7
								c-0.2,0.9-0.4,1.9-0.6,2.8c0,0.1-0.1,0.2-0.2,0.2c-1.3,0-2.6,0-3.9,0c0,0-0.1,0-0.1,0c0.6-2.6,1.1-5.2,1.7-7.7c0,0,0,0,0,0
								c0,0.1-0.1,0.1-0.1,0.2c-1.2,2.5-2.5,4.9-3.7,7.4c-0.1,0.1-0.1,0.2-0.3,0.2c-0.8,0-1.7,0-2.6,0c-0.1,0-0.1,0-0.2,0
								c-0.1-2.6-0.1-5.1-0.2-7.7c0,0,0,0,0,0c0,0.1-0.1,0.3-0.1,0.4c-0.6,2.4-1.2,4.7-1.7,7.1c0,0.2-0.1,0.2-0.3,0.2
								c-1.3,0-2.5,0-3.8,0c-0.1,0-0.1,0-0.2,0c0.1-0.3,0.1-0.5,0.1-0.7c0.9-4.2,1.8-8.3,2.7-12.5c0.1-0.5,0.2-1,0.3-1.5
								c1.9,0,3.9,0,5.8,0c0,0,0,0.1,0,0.1c0,1.5,0.1,2.9,0.1,4.4c0,1.1,0.1,2.3,0.1,3.4c0,0.1,0,0.1,0,0.2c1.3-2.7,2.6-5.4,3.9-8.1
								C309.7,332,311.6,332,313.6,332z"/>
							<path style="fill-rule:evenodd;clip-rule:evenodd;fill:#FFFFFF;" d="M294.4,355.7c0-0.2,0.1-0.4,0.1-0.6
								c0.2-1,0.5-1.8,1.3-2.4c0.5-0.4,1-0.5,1.6-0.6c0.7,0,1.4,0.1,2,0.5c0.7,0.5,1,1.1,1.1,1.9c0,0-0.1,0.1-0.1,0.1
								c-0.5,0.1-0.9,0.1-1.4,0.2c0,0-0.1-0.1-0.1-0.2c-0.1-0.4-0.2-0.7-0.6-1c-0.6-0.4-1.3-0.3-1.7,0.3c-0.2,0.3-0.3,0.7-0.4,1.1
								c-0.1,0.7-0.1,1.4,0.1,2c0.1,0.6,0.4,1,1,1.2c0.8,0.2,1.5-0.2,1.6-1c0.1-0.3,0-0.3-0.3-0.3c-0.3,0-0.6,0-1,0
								c-0.1,0-0.2,0-0.2-0.2c0-0.3,0-0.6,0-1c0-0.1,0-0.2,0.2-0.2c0.9,0,1.8,0,2.6,0c0.2,0,0.2,0.1,0.2,0.2c0,1.2,0,2.4,0,3.6
								c0,0.1,0,0.2-0.2,0.2c-0.5,0-0.5,0-0.7-0.5c0-0.1-0.1-0.2-0.1-0.3c0,0,0,0-0.1-0.1c0,0-0.1,0.1-0.1,0.1
								c-1.1,1.4-3.6,1-4.5-0.6c-0.3-0.5-0.4-1.1-0.5-1.7c0-0.1,0-0.1-0.1-0.2C294.4,356.2,294.4,355.9,294.4,355.7z"/>
							<path style="opacity:0.7;fill-rule:evenodd;clip-rule:evenodd;fill:#2D2D2D;" d="M318.5,332c-0.1,0.5-0.2,0.9-0.3,1.4
								c-0.1,0.3-0.1,0.6-0.2,1c-1.3,0-2.6,0-3.9,0c0.2-0.8,0.4-1.6,0.5-2.4C315.9,332,317.2,332,318.5,332z"/>
							<path style="opacity:0.7;fill-rule:evenodd;clip-rule:evenodd;fill:#2D2D2D;" d="M387.2,336.9c-0.1,0.5-0.3,0.9-0.9,1.1
								c-0.7,0.2-1.3-0.2-1.5-0.8c-0.2-0.6,0.2-1.3,0.8-1.5c0.7-0.2,1.3,0.2,1.5,0.9c0,0.1,0,0.1,0,0.2
								C387.2,336.8,387.2,336.8,387.2,336.9z M384.9,336.8c0,0.6,0.5,1,1,1c0.6,0,1-0.5,1-1c0-0.6-0.5-1-1-1
								C385.4,335.8,384.9,336.3,384.9,336.8z"/>
							<path style="opacity:0.7;fill-rule:evenodd;clip-rule:evenodd;fill:#2D2D2D;" d="M330,335.7c1.2,0,2.4,0,3.6,0
								c-0.1,0.4-0.2,0.8-0.3,1.3c1-1.1,2.3-1.4,3.6-1.5c-0.2,0.8-0.4,1.6-0.6,2.3c0.4-0.4,0.7-0.7,1.1-1.1c1-0.8,2.1-1.3,3.4-1.5
								c1.1-0.1,2.3-0.1,3.3,0.4c1.8,0.7,2.8,2.2,2.8,4.2c0,0.4-0.1,0.8-0.1,1.3c0,0.3-0.2,0.4-0.5,0.5c-1,0.4-2.1,0.7-3.1,1.1
								c0,0-0.1,0-0.1,0.1c2.4,0,4.7,0,7.1,0c0,0.2,0,0.3,0,0.4c0,0.5,0.3,0.9,0.7,1.1c0.6,0.2,1.2,0.2,1.8,0
								c0.3-0.1,0.5-0.2,0.6-0.5c0.2-0.4,0.2-0.7-0.1-1c-0.3-0.3-0.7-0.4-1.1-0.5c-1-0.2-2-0.4-2.9-0.9c-0.8-0.4-1.4-1-1.5-1.9
								c-0.2-1.2,0.2-2.2,1.1-2.9c0.7-0.6,1.5-0.9,2.4-1.1c1.5-0.3,3.1-0.2,4.6,0.2c0.6,0.2,1.1,0.4,1.5,0.8
								c0.7,0.7,0.8,1.5,0.7,2.4c0,0-0.1,0.1-0.1,0.1c-1.2,0-2.4,0-3.6,0c0-0.1,0-0.2,0-0.2c0-0.6-0.3-1-0.9-1.1
								c-0.5-0.1-1,0-1.4,0.2c-0.5,0.3-0.5,0.8,0,1.2c0.4,0.3,0.8,0.4,1.3,0.5c0.7,0.1,1.3,0.2,2,0.4c0.8,0.2,1.4,0.6,1.9,1.3
								c0.7,1,0.7,2.1,0.2,3.1c-0.6,1.4-1.7,2.1-3.1,2.5c-0.9,0.3-1.8,0.3-2.7,0.3c-1.1,0-2.1-0.1-3.1-0.5c-0.7-0.3-1.4-0.6-1.8-1.3
								c-0.3-0.5-0.5-1-0.5-1.6c0,0,0-0.1,0-0.2c-0.1,0.2-0.2,0.4-0.4,0.5c-1.2,1.6-2.7,2.5-4.7,2.8c-0.9,0.1-1.7,0.1-2.6,0
								c-2.2-0.4-3.3-2-3.6-3.8c-0.2-1.3,0.1-2.5,0.6-3.7c0-0.1,0.1-0.1,0.1-0.2c-0.3,0-0.7,0-1,0.2c-1,0.4-1.6,1.2-1.9,2.2
								c-0.3,0.9-0.5,1.9-0.8,2.9c-0.2,0.7-0.3,1.4-0.5,2.1c0,0.1-0.1,0.2-0.2,0.2c-1.2,0-2.4,0-3.6,0c0,0,0,0-0.1,0
								C328.4,343,329.2,339.4,330,335.7z M338.8,342.3c0,0.2,0,0.4,0.1,0.7c0.2,0.8,0.7,1.3,1.5,1.2c0.4,0,0.7-0.2,1-0.4
								c0.9-0.7,1.4-1.6,1.6-2.7c0.2-0.7,0.3-1.5,0-2.2c-0.2-0.7-0.7-1.1-1.4-1c-0.4,0-0.8,0.2-1.1,0.5
								C339.5,339.4,338.9,340.7,338.8,342.3z"/>
							<path style="opacity:0.7;fill-rule:evenodd;clip-rule:evenodd;fill:#2D2D2D;" d="M375.9,338.3c-0.6,2.8-1.2,5.5-1.8,8.3
								c-1.3,0-2.6,0-3.9,0c0.6-2.8,1.2-5.5,1.8-8.3c-0.7,0-1.3,0-1.9,0c0.1,0.4,0.2,0.8,0.3,1.2c0.1,0.9-0.1,1.9-0.4,2.7
								c-0.8,2.4-2.5,4-5,4.6c-1.3,0.3-2.7,0.2-3.9-0.3c-1.5-0.5-2.4-1.7-2.7-3.2c-0.4-1.7,0-3.3,0.9-4.7c1.3-2.1,3.2-3.2,5.7-3.3
								c1.1-0.1,2.2,0.1,3.3,0.7c0.8,0.5,1.4,1.1,1.8,2c0,0,0,0.1,0.1,0.1c0,0,0,0,0,0.1c0-0.2,0.1-0.4,0.1-0.5
								c0-0.2,0.1-0.4,0.1-0.6c0.1-0.4,0.2-0.8,0.3-1.2c0-0.2,0.1-0.2,0.2-0.2c0.6,0,1.1,0,1.7,0c0.1-0.3,0.2-0.7,0.3-1
								c0.2-0.6,0.4-1.1,0.8-1.6c0.4-0.5,1-0.8,1.7-0.9c1-0.2,2-0.2,2.9-0.1c0,0,0.1,0,0.1,0c-0.1,0.7-0.3,1.3-0.4,2
								c-0.4,0-0.9,0-1.2,0.4c-0.3,0.3-0.3,0.7-0.4,1.2c0.8,0,1.5,0,2.3,0c0.2-0.8,0.4-1.7,0.6-2.6c1.2,0,2.4,0,3.6,0
								c-0.2,0.9-0.4,1.7-0.6,2.6c0.6,0,1.2,0,1.9,0c-0.2,0.8-0.4,1.7-0.6,2.5c-0.6,0-1.2,0-1.8,0c-0.1,0.5-0.2,1-0.3,1.5
								c-0.3,1.2-0.5,2.3-0.8,3.5c0,0,0,0.1,0,0.1c-0.1,0.5,0,0.7,0.6,0.7c0.4,0,0.8,0,1.2,0c0,0.1,0,0.2-0.1,0.3
								c-0.2,0.7-0.3,1.4-0.5,2.1c0,0.1,0,0.2-0.2,0.2c-1,0.1-2,0.1-3,0c-0.5-0.1-1-0.2-1.3-0.6c-0.3-0.3-0.5-0.7-0.5-1.2
								c0-0.5,0.1-1.1,0.2-1.6c0.3-1.6,0.7-3.2,1-4.8c0-0.1,0-0.1,0-0.2C377.3,338.3,376.6,338.3,375.9,338.3z M366.5,339.7
								c-0.1-0.3-0.1-0.7-0.2-1c-0.2-0.7-0.8-0.9-1.5-0.8c-0.4,0.1-0.8,0.3-1.1,0.6c-0.9,0.9-1.4,2.1-1.6,3.3
								c-0.1,0.5-0.1,1.1,0.2,1.6c0.2,0.4,0.5,0.7,0.9,0.8c0.6,0.1,1.1-0.1,1.6-0.5C365.9,342.7,366.4,341.4,366.5,339.7z"/>
							<path style="opacity:0.7;fill-rule:evenodd;clip-rule:evenodd;fill:#2D2D2D;" d="M328.1,342.6c-0.2,0.7-0.5,1.3-1,1.8
								c-1,1.3-2.4,2-3.9,2.3c-1,0.2-2,0.2-3,0c-1.8-0.4-3-1.8-3.3-3.6c-0.5-3.4,1.8-6.9,5.5-7.6c1.3-0.2,2.6-0.2,3.9,0.3
								c1.6,0.7,2.5,2,2.4,3.8c0,0,0,0.1,0,0.1c-1.3,0-2.7,0-4,0c0-0.2,0-0.4,0-0.6c0-0.1,0-0.1,0-0.2c-0.1-0.8-0.7-1.2-1.5-0.9
								c-0.4,0.1-0.8,0.4-1.1,0.8c-0.9,1-1.3,2.3-1.3,3.6c0,0.5,0.2,1,0.6,1.4c0.4,0.3,1,0.4,1.5,0.1c0.5-0.3,0.8-0.7,1.1-1.2
								c0-0.1,0.1-0.1,0.2-0.1c1.3,0,2.6,0,3.8,0C328,342.6,328,342.6,328.1,342.6z"/>
							<path style="opacity:0.7;fill-rule:evenodd;clip-rule:evenodd;fill:#2D2D2D;" d="M311.3,346.6c0.8-3.6,1.6-7.2,2.4-10.8
								c1.3,0,2.6,0,4,0c-0.8,3.6-1.6,7.2-2.4,10.8C313.9,346.6,312.6,346.6,311.3,346.6z"/>
							<path style="fill-rule:evenodd;clip-rule:evenodd;fill:#FFFFFF;" d="M348.7,359.7c-0.2,0-0.4,0-0.5,0c-0.4,0-0.8,0-1.2,0
								c-0.2,0-0.2-0.1-0.3-0.2c-0.3-0.9-0.7-1.7-1-2.6c-0.1-0.2-0.1-0.2-0.3-0.2c-0.3,0-0.7,0-1.1,0c0,0.1,0,0.2,0,0.3
								c0,0.8,0,1.6,0,2.5c0,0.2,0,0.2-0.2,0.2c-0.4,0-0.8,0-1.3,0c-0.2,0-0.2-0.1-0.2-0.2c0-2.3,0-4.7,0-7c0-0.2,0-0.2,0.2-0.2
								c1.1,0,2.1,0,3.2,0c0.3,0,0.6,0,0.9,0.1c0.9,0.2,1.6,0.9,1.6,1.9c0.1,0.7-0.2,1.4-0.8,1.9c-0.1,0.1-0.2,0.2-0.3,0.2
								c-0.1,0.1-0.2,0.1-0.1,0.3c0.4,0.9,0.8,1.9,1.2,2.8C348.6,359.5,348.6,359.5,348.7,359.7z M344.3,355.4c0.6,0,1.1,0,1.7,0
								c0.4,0,0.8-0.5,0.8-0.9c0-0.5-0.2-0.9-0.7-1c-0.5-0.1-1.1,0-1.6,0c0,0-0.1,0.1-0.1,0.2c0,0.3,0,0.6,0,0.9
								C344.3,354.9,344.3,355.1,344.3,355.4z"/>
							<path style="fill-rule:evenodd;clip-rule:evenodd;fill:#FFFFFF;" d="M378.3,355.9c0-1.2,0-2.3,0-3.5c0-0.2,0-0.2,0.2-0.2
								c0.7,0,1.5,0,2.2,0c0.7,0,1.4,0.1,2,0.4c0.9,0.5,1.4,1.3,1.6,2.2c0.3,1.2,0.1,2.4-0.6,3.4c-0.6,0.8-1.4,1.3-2.4,1.3
								c-0.9,0-1.9,0-2.8,0c-0.2,0-0.2-0.1-0.2-0.2C378.3,358.3,378.3,357.1,378.3,355.9z M379.9,355.9c0,0.7,0,1.4,0,2.2
								c0,0.2,0.1,0.2,0.2,0.2c0.3,0,0.5,0,0.8,0c0.5,0,0.9-0.2,1.1-0.6c0.3-0.4,0.5-0.9,0.5-1.3c0.1-0.8,0-1.5-0.5-2.2
								c-0.2-0.3-0.5-0.5-0.9-0.6c-0.3,0-0.6,0-1,0c-0.2,0-0.2,0.1-0.2,0.2C379.9,354.5,379.9,355.2,379.9,355.9z"/>
							<path style="fill-rule:evenodd;clip-rule:evenodd;fill:#FFFFFF;" d="M316.6,355.9c0-1.2,0-2.3,0-3.5c0-0.2,0-0.3,0.2-0.3
								c0.7,0,1.4,0,2.2,0c0.6,0,1.2,0,1.7,0.3c1,0.5,1.5,1.3,1.8,2.3c0.3,1.4,0.1,2.7-0.8,3.8c-0.6,0.7-1.3,1-2.1,1
								c-0.9,0-1.9,0-2.8,0c-0.2,0-0.2-0.1-0.2-0.2C316.7,358.3,316.6,357.1,316.6,355.9z M318.3,355.9c0,0.7,0,1.4,0,2.1
								c0,0.2,0.1,0.3,0.3,0.2c0.2,0,0.5,0,0.7,0c0.5,0,0.9-0.3,1.2-0.7c0.3-0.4,0.4-0.9,0.5-1.4c0.1-0.7-0.1-1.4-0.5-1.9
								c-0.2-0.4-0.6-0.6-1-0.6c-0.3,0-0.6,0-0.9,0c-0.2,0-0.2,0-0.2,0.2C318.3,354.5,318.3,355.2,318.3,355.9z"/>
							<path style="fill-rule:evenodd;clip-rule:evenodd;fill:#FFFFFF;" d="M305.5,352.1c1.5,0,2.3,0.8,2.8,2.1
								c0.2,0.5,0.3,1,0.3,1.5c0,1-0.2,1.9-0.7,2.8c-0.4,0.6-1,1-1.7,1.2c-0.8,0.2-1.6,0.1-2.3-0.3c-0.6-0.4-1-0.9-1.2-1.5
								c-0.5-1.3-0.5-2.6,0-3.8C303.1,352.9,304,352.1,305.5,352.1z M304,356.1c0,0.1,0,0.4,0.1,0.7c0.1,0.4,0.1,0.8,0.4,1.2
								c0.4,0.6,1.2,0.7,1.8,0.2c0.2-0.2,0.4-0.5,0.4-0.8c0.2-0.7,0.2-1.5,0.1-2.2c0-0.3-0.1-0.6-0.2-0.9c-0.1-0.4-0.4-0.6-0.8-0.7
								c-0.7-0.1-1.2,0.2-1.4,0.8C304.1,354.9,304,355.4,304,356.1z"/>
							<path style="fill-rule:evenodd;clip-rule:evenodd;fill:#FFFFFF;" d="M335.6,355.9c0-1.2,0-2.3,0-3.5c0-0.2,0-0.3,0.2-0.3
								c1.6,0,3.2,0,4.8,0c0.2,0,0.2,0.1,0.2,0.2c0,0.3,0,0.6,0,0.9c0,0.3,0,0.3-0.3,0.3c-1,0-2,0-3,0c-0.3,0-0.3,0-0.3,0.3
								c0,0.4,0,0.7,0,1.1c0,0.3,0,0.3,0.3,0.3c0.8,0,1.5,0,2.3,0c0.2,0,0.2,0.1,0.2,0.2c0,0.3,0,0.6,0,0.9c0,0.2,0,0.2-0.2,0.2
								c-0.8,0-1.6,0-2.3,0c-0.2,0-0.2,0.1-0.2,0.2c0,0.4,0,0.8,0,1.2c0,0.2,0.1,0.3,0.3,0.3c1,0,2,0,3,0c0.3,0,0.3,0,0.3,0.3
								c0,0.3,0,0.6,0,1c0,0.1,0,0.2-0.2,0.2c-1.7,0-3.3,0-5,0c-0.2,0-0.2-0.1-0.2-0.2C335.6,358.3,335.6,357.1,335.6,355.9z"/>
							<path style="fill-rule:evenodd;clip-rule:evenodd;fill:#FFFFFF;" d="M371.3,355.9c0-1.2,0-2.3,0-3.5c0-0.2,0.1-0.2,0.3-0.2
								c1.6,0,3.2,0,4.8,0c0.2,0,0.3,0,0.2,0.2c0,0.3,0,0.6,0,0.9c0,0.2,0,0.2-0.2,0.2c-1,0-2,0-3.1,0c-0.3,0-0.3,0-0.3,0.3
								c0,0.4,0,0.7,0,1.1c0,0.2,0.1,0.2,0.2,0.2c0.8,0,1.6,0,2.3,0c0.2,0,0.3,0,0.2,0.2c0,0.3,0,0.6,0,0.8c0,0.2,0,0.3-0.3,0.3
								c-0.8,0-1.6,0-2.3,0c-0.2,0-0.2,0-0.2,0.2c0,0.4,0,0.8,0,1.2c0,0.3,0,0.3,0.3,0.3c1,0,2,0,3,0c0.3,0,0.3,0,0.3,0.3
								c0,0.3,0,0.6,0,1c0,0.1,0,0.2-0.2,0.2c-1.6,0-3.3,0-4.9,0c-0.2,0-0.2-0.1-0.2-0.2C371.3,358.3,371.3,357.1,371.3,355.9z"/>
							<path style="fill-rule:evenodd;clip-rule:evenodd;fill:#FFFFFF;" d="M332.2,355.1c0-0.2-0.1-0.4-0.1-0.6
								c-0.2-0.7-0.7-1.1-1.5-1c-0.4,0.1-0.7,0.3-0.8,0.7c-0.1,0.4-0.2,0.8-0.3,1.3c-0.1,0.6,0,1.3,0.2,1.9c0.2,0.8,0.8,1.1,1.6,0.9
								c0.3-0.1,0.6-0.2,0.7-0.5c0.1-0.2,0.2-0.4,0.2-0.6c0-0.2,0.1-0.2,0.3-0.2c0.4,0,0.8,0.1,1.2,0.1c0.1,0,0.1,0.1,0.1,0.2
								c-0.2,1.3-1,2.2-2.2,2.4c-1.1,0.2-2.1,0.1-3-0.7c-0.6-0.5-0.9-1.3-1.1-2c-0.2-1-0.1-2,0.3-2.9c0.5-1.1,1.3-1.8,2.5-1.9
								c0.9-0.1,1.8,0,2.5,0.6c0.5,0.5,0.8,1.1,0.9,1.8c0.1,0.4,0.1,0.4-0.3,0.4C333.1,355,332.6,355,332.2,355.1z"/>
							<g>
								<path style="fill-rule:evenodd;clip-rule:evenodd;fill:#FFFFFF;" d="M339.4,363.9c14.9,0,29.7,0,44.6,0c0.1,0,0.1,0,0.2,0
									c0.1,0,0.1,0.1,0.1,0.1c0,0-0.1,0.1-0.1,0.1c0,0-0.1,0-0.1,0c-29.8,0-59.6,0-89.3,0c-0.1,0-0.1,0-0.2,0c0,0-0.1-0.1-0.1-0.1
									c0,0,0.1-0.1,0.1-0.1c0.1,0,0.1,0,0.2,0C309.7,363.9,324.6,363.9,339.4,363.9z"/>
								<path style="fill:#FFFFFF;" d="M384.2,364.6C384.2,364.6,384.1,364.6,384.2,364.6l-89.4,0c-0.1,0-0.2,0-0.3,0
									c-0.2-0.1-0.3-0.3-0.3-0.5c0-0.2,0.2-0.4,0.4-0.5c0.1,0,0.2,0,0.3,0l89.3,0c0.1,0,0.2,0,0.3,0c0.1,0,0.2,0.1,0.3,0.2
									l0.2,0.3l-0.2,0.3c-0.1,0.1-0.1,0.1-0.2,0.2C384.4,364.5,384.3,364.6,384.2,364.6z"/>
							</g>
							<path style="fill-rule:evenodd;clip-rule:evenodd;fill:#FFFFFF;" d="M362.4,356.8c0,0.1,0,0.2,0,0.3c0,0.8,0,1.6,0,2.4
								c0,0.2,0,0.2-0.2,0.2c-0.5,0-0.9,0-1.4,0c-0.1,0-0.2,0-0.2-0.2c0-2.4,0-4.7,0-7.1c0-0.1,0-0.2,0.2-0.2c1.6,0,3.3,0,4.9,0
								c0.1,0,0.2,0,0.2,0.2c0,0.3,0,0.7,0,1c0,0.2,0,0.3-0.2,0.3c-1,0-2,0-3,0c-0.3,0-0.3,0-0.3,0.3c0,0.4,0,0.8,0,1.3
								c0,0.2,0.1,0.2,0.2,0.2c0.8,0,1.5,0,2.3,0c0.2,0,0.2,0,0.2,0.2c0,0.3,0,0.6,0,0.9c0,0.2-0.1,0.2-0.2,0.2c-0.8,0-1.5,0-2.3,0
								C362.6,356.8,362.5,356.8,362.4,356.8z"/>
							<path style="fill-rule:evenodd;clip-rule:evenodd;fill:#FFFFFF;" d="M353.5,356.7c0,0.9,0,1.8,0,2.8c0,0.2-0.1,0.2-0.2,0.2
								c-0.4,0-0.8,0-1.2,0c-0.2,0-0.3-0.1-0.3-0.3c0-1.8,0-3.6,0-5.3c0-0.1,0-0.1,0-0.2c0-0.2-0.1-0.2-0.2-0.2c-0.5,0-0.9,0-1.4,0
								c-0.2,0-0.2-0.1-0.2-0.2c0-0.3,0-0.7,0-1c0-0.2,0.1-0.2,0.2-0.2c1.7,0,3.4,0,5,0c0.1,0,0.2,0,0.2,0.2c0,0.3,0,0.7,0,1
								c0,0.2,0,0.2-0.2,0.2c-0.5,0-0.9,0-1.4,0c-0.2,0-0.3,0.1-0.3,0.3C353.5,354.8,353.5,355.7,353.5,356.7z"/>
							<path style="fill-rule:evenodd;clip-rule:evenodd;fill:#FFFFFF;" d="M310.4,355.9c0-1.2,0-2.3,0-3.5c0-0.2,0-0.3,0.2-0.3
								c0.4,0,0.8,0,1.3,0c0.2,0,0.3,0.1,0.3,0.2c0,1.8,0,3.7,0,5.5c0,0.3,0,0.3,0.3,0.3c0.8,0,1.6,0,2.4,0c0.2,0,0.2,0,0.2,0.2
								c0,0.3,0,0.7,0,1c0,0.2-0.1,0.2-0.2,0.2c-1.4,0-2.8,0-4.3,0c-0.2,0-0.2-0.1-0.2-0.2C310.4,358.3,310.4,357.1,310.4,355.9z"/>
							<path style="fill-rule:evenodd;clip-rule:evenodd;fill:#FFFFFF;" d="M367.4,355.9c0-1.2,0-2.3,0-3.5c0-0.2,0.1-0.3,0.3-0.3
								c0.4,0,0.8,0,1.3,0c0.1,0,0.2,0,0.2,0.2c0,2.4,0,4.7,0,7.1c0,0.1,0,0.2-0.2,0.2c-0.4,0-0.9,0-1.3,0c-0.2,0-0.2-0.1-0.2-0.2
								C367.4,358.3,367.4,357.1,367.4,355.9z"/>
							<path style="fill-rule:evenodd;clip-rule:evenodd;fill:#FFFFFF;" d="M356.7,355.9c0-1.2,0-2.3,0-3.5c0-0.2,0-0.2,0.2-0.2
								c0.4,0,0.9,0,1.3,0c0.1,0,0.2,0,0.2,0.2c0,2.4,0,4.7,0,7.1c0,0.1,0,0.2-0.2,0.2c-0.4,0-0.9,0-1.3,0c-0.2,0-0.2-0.1-0.2-0.2
								C356.7,358.3,356.7,357.1,356.7,355.9z"/>
							<g>
								<g>
									<path style="fill-rule:evenodd;clip-rule:evenodd;fill:#FFFFFF;" d="M325,373.8c0.1-0.4,0.1-0.8,0.2-1.3
										c0.2-1.3,0.4-2.5,0.6-3.8c0.1-0.4,0.1-0.8,0.2-1.2c0-0.1,0.1-0.1,0.1-0.1c0.8,0,1.7,0,2.5,0.1c0.7,0.1,1.2,0.7,1.3,1.4
										c0.2,1.2-0.6,2.2-1.8,2.3c-0.6,0.1-1.2,0-1.8,0c-0.2,0-0.3,0-0.3,0.2c-0.1,0.7-0.2,1.4-0.4,2.1c0,0.1-0.1,0.2-0.2,0.2
										C325.4,373.7,325.2,373.8,325,373.8z M326.3,370.6c0.6,0,1.1,0,1.7,0c0.9,0,1.4-0.6,1.3-1.5c0-0.6-0.3-1-0.8-1
										c-0.5-0.1-1.1-0.1-1.6-0.1c-0.1,0-0.1,0.1-0.2,0.2c-0.1,0.5-0.2,0.9-0.2,1.4C326.4,369.9,326.4,370.2,326.3,370.6z"/>
								</g>
							</g>
							<g>
								<g>
									<path style="fill-rule:evenodd;clip-rule:evenodd;fill:#FFFFFF;" d="M333.2,372.9c-0.2,0.2-0.3,0.3-0.4,0.5
										c-0.5,0.5-1.1,0.6-1.7,0.5c-0.6-0.1-0.9-0.5-1-1c-0.1-0.6,0.1-1.1,0.6-1.5c0.4-0.3,1-0.4,1.5-0.4c0.4,0,0.8,0,1.3,0
										c0.2,0,0.2-0.1,0.2-0.2c0-0.1,0-0.3,0-0.4c-0.1-0.5-0.4-0.8-1-0.9c-0.6,0-1.1,0.1-1.5,0.7c-0.1,0.1-0.1,0.1-0.2,0.1
										c-0.2-0.1-0.3-0.1-0.6-0.2c0.2-0.2,0.4-0.4,0.6-0.6c0.7-0.5,2-0.6,2.8-0.1c0.4,0.3,0.6,0.7,0.5,1.2
										c-0.1,0.9-0.3,1.8-0.4,2.8c0,0.1,0,0.3,0,0.4c0,0.1,0,0.2-0.2,0.2c-0.5,0-0.6-0.1-0.5-0.6
										C333.2,373.1,333.2,373,333.2,372.9C333.2,373,333.2,372.9,333.2,372.9z M332.8,371.4c-0.2,0-0.3,0-0.5,0
										c-0.4,0-0.8,0.1-1.2,0.4c-0.4,0.3-0.5,0.8-0.3,1.2c0.2,0.3,0.6,0.5,1,0.4c0.8-0.1,1.5-0.9,1.6-1.8c0-0.1,0-0.1-0.1-0.1
										C333.2,371.4,333,371.4,332.8,371.4z"/>
								</g>
							</g>
							<g>
								<g>
									<path style="fill-rule:evenodd;clip-rule:evenodd;fill:#FFFFFF;" d="M349.8,372.4c0.2,0.1,0.4,0.2,0.6,0.3
										c-0.3,0.5-0.7,1-1.3,1.1c-0.8,0.2-1.6,0.1-2.2-0.5c-0.4-0.5-0.5-1.1-0.5-1.7c0-0.7,0.2-1.3,0.6-1.8
										c0.7-0.8,1.9-1.1,2.7-0.6c0.6,0.3,0.9,0.9,0.9,1.6c0,0.2,0,0.3,0,0.5c0,0.2-0.1,0.2-0.3,0.2c-0.9,0-1.8,0-2.8,0
										c-0.6,0-0.5-0.1-0.5,0.6c0,0.6,0.4,1.2,1,1.3c0.6,0.1,1.1,0,1.5-0.5C349.6,372.7,349.7,372.6,349.8,372.4z M347.2,371
										c0.9,0,1.7,0,2.6,0c0,0,0.1-0.1,0.1-0.1c0.1-0.9-0.5-1.4-1.3-1.4C347.9,369.5,347.1,370.2,347.2,371z"/>
								</g>
							</g>
							<g>
								<path style="fill-rule:evenodd;clip-rule:evenodd;fill:#FFFFFF;" d="M341.2,373.8c0.1-0.4,0.1-0.8,0.2-1.2
									c0.2-1.1,0.4-2.2,0.6-3.3c0-0.2,0.1-0.2,0.3-0.2c0.1,0,0.2,0,0.4,0c-0.1,0.3-0.1,0.6-0.2,1c0,0,0,0,0.1,0
									c0.1-0.1,0.1-0.2,0.2-0.2c0.3-0.4,0.6-0.7,1.1-0.8c1.1-0.2,1.9,0.6,1.7,1.6c-0.2,1-0.3,2-0.5,3c0,0.2-0.1,0.2-0.2,0.2
									c-0.5,0-0.5,0-0.4-0.4c0.2-0.9,0.3-1.8,0.4-2.8c0.1-0.7-0.4-1.2-1.2-1c-0.5,0.1-0.8,0.5-1,0.9c-0.3,0.6-0.4,1.2-0.5,1.8
									c-0.1,0.4-0.2,0.9-0.2,1.4c0,0.1-0.1,0.2-0.2,0.2C341.6,373.8,341.4,373.8,341.2,373.8z"/>
							</g>
							<g>
								<path style="fill-rule:evenodd;clip-rule:evenodd;fill:#FFFFFF;" d="M340.6,373.3C340.6,373.3,340.6,373.3,340.6,373.3
									c-0.1,0.6-0.2,0.6-0.8,0.6c-0.2,0-0.4-0.1-0.5-0.1c-0.3-0.1-0.6-0.4-0.5-0.8c0-0.6,0.1-1.2,0.2-1.8c0.1-0.5,0.2-1,0.3-1.5
									c0,0,0-0.1,0-0.1c-0.2,0-0.4,0-0.7,0c0-0.2,0-0.3,0.1-0.4c0,0,0.1-0.1,0.1-0.1c0.1,0,0.3,0,0.4,0c0.2,0,0.2-0.1,0.3-0.2
									c0-0.3,0.1-0.5,0.1-0.8c0-0.1,0.1-0.2,0.2-0.2c0.1,0,0.3,0,0.5,0c-0.1,0.4-0.1,0.8-0.2,1.2c0.4,0,0.7,0,1.1,0
									c0,0.2,0,0.3-0.1,0.5c0,0-0.1,0.1-0.2,0.1c-0.2,0-0.5,0-0.7,0c-0.1,0-0.2,0-0.2,0.2c-0.2,1-0.3,1.9-0.5,2.9
									c-0.1,0.4,0.2,0.7,0.7,0.7C340.2,373.3,340.4,373.3,340.6,373.3z"/>
							</g>
							<g>
								<path style="fill-rule:evenodd;clip-rule:evenodd;fill:#FFFFFF;" d="M335.1,373.8c0.1-0.4,0.1-0.8,0.2-1.2
									c0.2-1.1,0.4-2.2,0.6-3.3c0-0.1,0.1-0.2,0.2-0.2c0.1,0,0.2,0,0.3,0c0.1,0,0.2,0.1,0.1,0.2c-0.1,0.3-0.1,0.6-0.2,1
									c0,0,0,0,0,0c0-0.1,0.1-0.1,0.1-0.2c0.2-0.3,0.4-0.6,0.7-0.8c0.2-0.2,0.6-0.3,0.9-0.3c0.2,0,0.2,0.1,0.2,0.2c0,0,0,0,0,0
									c0,0.1,0,0.3-0.1,0.4c-0.1,0.1-0.3,0-0.4,0.1c-0.6,0.1-0.9,0.5-1.2,1c-0.3,0.6-0.5,1.3-0.6,1.9c-0.1,0.3-0.1,0.7-0.2,1
									c0,0.1-0.1,0.2-0.2,0.2C335.5,373.7,335.3,373.8,335.1,373.8z"/>
							</g>
							<g>
								<path style="fill-rule:evenodd;clip-rule:evenodd;fill:#FFFFFF;" d="M354.3,368.9c0,0.1,0,0.2,0,0.2c0,0.1,0,0.3-0.1,0.4
									c-0.1,0.1-0.2,0-0.4,0.1c-0.4,0.1-0.7,0.3-1,0.6c-0.4,0.6-0.6,1.2-0.7,1.9c-0.1,0.5-0.2,1-0.2,1.5c0,0.1-0.1,0.2-0.2,0.2
									c-0.1,0-0.2,0-0.3,0c-0.2,0-0.2-0.1-0.2-0.2c0.2-1.4,0.5-2.9,0.7-4.3c0-0.1,0.1-0.2,0.2-0.2c0.6,0,0.5-0.1,0.4,0.5
									c0,0.2-0.1,0.4-0.1,0.7c0,0,0.1-0.1,0.1-0.1c0.2-0.3,0.4-0.6,0.7-0.8C353.5,369,353.8,368.9,354.3,368.9z"/>
							</g>
							<path style="opacity:0.7;fill-rule:evenodd;clip-rule:evenodd;fill:#2D2D2D;" d="M385.4,337.4c0.1-0.4,0.2-0.7,0.3-1.1
								c0,0,0-0.1,0.1-0.1c0.2,0,0.4,0,0.6,0c0.2,0.1,0.2,0.5,0,0.6c-0.1,0-0.1,0.1-0.2,0.1c0,0.1,0.1,0.2,0.1,0.2
								c0,0.1,0.1,0.2,0.1,0.2c-0.1,0.1-0.2,0-0.3-0.1c0-0.1-0.1-0.2-0.1-0.3c0-0.1-0.1-0.1-0.2-0.1c0,0-0.1,0.1-0.1,0.1
								c0,0.1-0.1,0.2-0.1,0.3C385.6,337.4,385.5,337.4,385.4,337.4z M385.7,336.7c0.2,0,0.3,0,0.5-0.1c0.1,0,0.1-0.1,0.1-0.2
								c0,0,0-0.1-0.1-0.1c-0.2-0.1-0.4,0-0.5,0.2C385.8,336.6,385.8,336.6,385.7,336.7z"/>
						</g>
					</g>
				</g>
			</g>
		</g>
	</g>
	<g>
		<rect x="138.5" y="150.9" style="fill-rule:evenodd;clip-rule:evenodd;fill:#FFD939;" width="124.4" height="124.4"/>
		<g>
			<g>
				<path style="fill:#FFD939;" d="M232.8,244.4h-63.7c-1.2,0-2.1-0.9-2.1-2.1v-58.4c0-1.2,0.9-2.1,2.1-2.1h63.7
					c1.2,0,2.1,0.9,2.1,2.1v58.4C234.9,243.5,234,244.4,232.8,244.4z"/>
				<path style="fill:#FFFFFF;" d="M197.9,212.8l3.1-1.6l3,1.7l-0.5-3.4l2.5-2.4l-3.4-0.5l-1.5-3.1l-1.6,3.1l-3.4,0.4l2.4,2.4
					L197.9,212.8z M173.6,212.8l3.1-1.6l3,1.7l-0.5-3.4l2.5-2.4l-3.4-0.5l-1.5-3.1l-1.6,3.1l-3.4,0.4l2.4,2.4L173.6,212.8z
					 M222.1,212.8l3.1-1.6l3,1.7l-0.5-3.4l2.5-2.4l-3.4-0.5l-1.5-3.1l-1.6,3.1l-3.4,0.4l2.4,2.4L222.1,212.8z M210,212.8l3.1-1.6
					l3,1.7l-0.5-3.4l2.5-2.4l-3.4-0.5l-1.5-3.1l-1.6,3.1l-3.4,0.4l2.4,2.4L210,212.8z M185.7,212.8l3.1-1.6l3,1.7l-0.5-3.4l2.5-2.4
					l-3.4-0.5l-1.5-3.1l-1.6,3.1l-3.4,0.4l2.4,2.4L185.7,212.8z"/>
				<path style="fill:#636363;" d="M227.3,217.3c-0.3-0.2-0.6-0.3-0.9-0.4c-0.3-0.1-1-0.1-1.8-0.1h-1.3v6h1.6c0.7,0,1.2,0,1.6-0.1
					c0.3-0.1,0.6-0.2,0.9-0.4c0.3-0.3,0.6-0.6,0.8-1c0.2-0.4,0.3-0.9,0.3-1.4c0-0.5-0.1-1-0.3-1.4
					C228,217.9,227.7,217.5,227.3,217.3z M227.2,220.7c-0.1,0.3-0.3,0.5-0.5,0.7c-0.2,0.1-0.4,0.2-0.6,0.3c-0.2,0.1-0.6,0.1-1,0.1
					h-0.8v-4.3h0.7c0.5,0,0.9,0,1.1,0.1c0.2,0.1,0.4,0.2,0.6,0.3c0.2,0.2,0.4,0.4,0.5,0.7c0.1,0.3,0.2,0.6,0.2,1
					C227.4,220.1,227.3,220.4,227.2,220.7z M211.2,222.7h3.4v-0.9h-2.4v-1.9h2.4v-0.9h-2.4v-1.5h2.4v-0.8h-3.4V222.7z M198.7,217.5
					h1.6v5.2h1v-5.2h1.6v-0.8h-4.2V217.5z M177.4,219.5c0.2-0.3,0.3-0.7,0.3-1.1c0-0.3-0.1-0.5-0.2-0.8c-0.1-0.2-0.2-0.4-0.4-0.6
					c-0.2-0.1-0.3-0.2-0.6-0.3c-0.2-0.1-0.5-0.1-0.9-0.1h-1.4v6h0.9V220h0.1l2,2.7h1.1l-2.1-2.7
					C176.9,219.9,177.2,219.8,177.4,219.5z M175.3,219.3v-1.7h0.2c0.5,0,0.8,0.1,1,0.2c0.2,0.1,0.3,0.4,0.3,0.7
					c0,0.3-0.1,0.5-0.3,0.6c-0.2,0.1-0.5,0.2-1,0.2H175.3z M185.8,222.7h1l0.7-1.6h2.4l0.7,1.6h1l-2.9-6.3L185.8,222.7z
					 M188.9,218.7c0,0.1,0.1,0.2,0.1,0.3l0.6,1.4h-1.7l0.6-1.4c0-0.1,0.1-0.2,0.1-0.3c0-0.1,0.1-0.2,0.1-0.4
					C188.8,218.5,188.8,218.6,188.9,218.7z M232.8,181.3h-63.7c-1.4,0-2.5,1.1-2.5,2.5v58.6c0,1.4,1.1,2.5,2.5,2.5h63.7
					c1.4,0,2.5-1.1,2.5-2.5v-58.6C235.4,182.4,234.2,181.3,232.8,181.3z M234.5,242.4c0,0.9-0.8,1.7-1.7,1.7h-63.7
					c-0.9,0-1.7-0.8-1.7-1.7v-15.5h67V242.4z M234.5,226.1h-67v-25.9h67V226.1z M234.5,199.3h-67v-15.5c0-0.9,0.8-1.7,1.7-1.7h63.7
					c0.9,0,1.7,0.8,1.7,1.7V199.3z M221.3,238.8h1.7v-5.4h2.1v-1.3h-5.9v1.3h2.1V238.8z M207.9,238.9c1.1,0,1.9-0.3,2.5-0.9
					c0.6-0.6,0.9-1.5,0.9-2.5c0-1.1-0.3-1.9-0.9-2.6c-0.6-0.6-1.5-0.9-2.5-0.9c-1.1,0-1.9,0.3-2.5,0.9c-0.6,0.6-0.9,1.5-0.9,2.6
					c0,1.1,0.3,1.9,0.9,2.5C206,238.6,206.8,238.9,207.9,238.9z M206.4,234.4c0.1-0.3,0.2-0.5,0.4-0.7c0.2-0.2,0.3-0.3,0.5-0.4
					c0.2-0.1,0.4-0.1,0.6-0.1c0.2,0,0.4,0,0.6,0.1c0.2,0.1,0.4,0.2,0.5,0.4c0.2,0.2,0.3,0.4,0.4,0.7c0.1,0.3,0.1,0.6,0.1,1
					c0,0.4,0,0.7-0.1,1s-0.2,0.5-0.4,0.7c-0.2,0.2-0.3,0.3-0.5,0.4c-0.2,0.1-0.4,0.1-0.6,0.1c-0.2,0-0.4,0-0.6-0.1
					c-0.2-0.1-0.4-0.2-0.5-0.4c-0.2-0.2-0.3-0.4-0.4-0.7c-0.1-0.3-0.1-0.6-0.1-1C206.2,235.1,206.3,234.7,206.4,234.4z M199.8,236.6
					h1.1c0.5,0,0.9-0.1,1.2-0.2c0.3-0.1,0.6-0.3,0.9-0.6c0.2-0.2,0.3-0.4,0.4-0.7s0.2-0.6,0.2-0.9c0-0.4-0.1-0.7-0.2-1
					c-0.1-0.3-0.3-0.5-0.6-0.7c-0.2-0.1-0.5-0.3-0.8-0.3c-0.3-0.1-0.7-0.1-1.1-0.1h-2.8v6.7h1.7V236.6z M199.8,233.3h0.3
					c0.3,0,0.5,0,0.7,0c0.2,0,0.3,0,0.5,0.1c0.1,0.1,0.3,0.1,0.4,0.3c0.1,0.1,0.2,0.3,0.2,0.5c0,0.2,0,0.4-0.1,0.5
					c0,0.1-0.1,0.2-0.2,0.3c-0.1,0.1-0.3,0.2-0.5,0.2c-0.2,0-0.4,0.1-0.7,0.1h-0.5V233.3z M193,236.6h1.1c0.5,0,0.9-0.1,1.2-0.2
					c0.3-0.1,0.6-0.3,0.9-0.6c0.2-0.2,0.3-0.4,0.4-0.7c0.1-0.3,0.2-0.6,0.2-0.9c0-0.4-0.1-0.7-0.2-1s-0.3-0.5-0.6-0.7
					c-0.2-0.1-0.5-0.3-0.8-0.3c-0.3-0.1-0.7-0.1-1.1-0.1h-2.8v6.7h1.7V236.6z M193,233.3h0.3c0.3,0,0.5,0,0.7,0s0.3,0,0.5,0.1
					c0.1,0.1,0.3,0.1,0.4,0.3c0.1,0.1,0.2,0.3,0.2,0.5c0,0.2,0,0.4-0.1,0.5c0,0.1-0.1,0.2-0.2,0.3c-0.1,0.1-0.3,0.2-0.5,0.2
					c-0.2,0-0.4,0.1-0.7,0.1H193V233.3z M214.4,236.3h0.8l1.8,2.5h2.1l-2.2-2.9c0.4-0.2,0.8-0.5,1-0.8c0.2-0.3,0.3-0.7,0.3-1.2
					c0-0.4-0.1-0.7-0.2-0.9c-0.1-0.2-0.3-0.4-0.6-0.6c-0.2-0.1-0.5-0.2-0.8-0.3c-0.3,0-0.6-0.1-1-0.1h-2.9v6.7h1.7V236.3z
					 M214.4,233.3h0.6c0.2,0,0.4,0,0.5,0c0.2,0,0.3,0,0.4,0.1c0.2,0.1,0.3,0.2,0.4,0.3c0.1,0.1,0.1,0.3,0.1,0.4c0,0.2,0,0.3-0.1,0.5
					c-0.1,0.1-0.1,0.2-0.3,0.3c-0.1,0.1-0.3,0.2-0.5,0.2c-0.2,0-0.4,0-0.7,0h-0.5V233.3z M191.9,194h4.8v-1.3h-3.1V191h2.9v-1.3
					h-2.9v-1.2h3.1v-1.3h-4.8V194z M217.4,187.3l-2.5,6.7h1.7l0.5-1.4h2.5l0.5,1.4h1.8l-2.5-6.7H217.4z M217.6,191.4l0.8-2.4
					l0.8,2.4H217.6z M212.3,189.7h-2.6v-2.5H208v6.7h1.7v-3h2.6v3h1.7v-6.7h-1.7V189.7z M186.7,238.9c1,0,1.7-0.2,2.2-0.7
					c0.5-0.4,0.8-1.1,0.8-1.9v-4.3H188v4.2c0,0.5-0.1,0.8-0.3,1.1c-0.2,0.2-0.5,0.3-0.9,0.3c-0.4,0-0.8-0.1-0.9-0.3
					c-0.2-0.2-0.3-0.6-0.3-1v-4.2h-1.7v4.3c0,0.8,0.3,1.5,0.8,1.9C185,238.7,185.7,238.9,186.7,238.9z M205.7,187.3
					c-0.2-0.1-0.4-0.1-0.6-0.1c-0.2,0-0.5,0-0.8,0c-0.5,0-1,0.1-1.4,0.2c-0.4,0.2-0.8,0.4-1.1,0.7c-0.3,0.3-0.5,0.7-0.7,1.1
					c-0.2,0.4-0.2,0.9-0.2,1.4c0,0.6,0.1,1.1,0.3,1.5c0.2,0.4,0.4,0.8,0.7,1.1c0.3,0.3,0.7,0.5,1.1,0.7c0.4,0.1,0.9,0.2,1.4,0.2
					c0.3,0,0.6,0,0.8,0c0.2,0,0.4-0.1,0.6-0.1c0.2,0,0.3-0.1,0.5-0.2c0.2-0.1,0.3-0.1,0.5-0.2v-1.6h-0.2c-0.1,0.1-0.2,0.2-0.3,0.3
					c-0.1,0.1-0.3,0.2-0.4,0.3c-0.2,0.1-0.4,0.2-0.6,0.3c-0.2,0.1-0.4,0.1-0.6,0.1c-0.2,0-0.4,0-0.7-0.1c-0.2-0.1-0.4-0.2-0.6-0.4
					c-0.2-0.2-0.3-0.4-0.4-0.7c-0.1-0.3-0.2-0.6-0.2-1.1c0-0.4,0.1-0.7,0.2-1c0.1-0.3,0.3-0.5,0.4-0.7c0.2-0.2,0.4-0.3,0.6-0.4
					c0.2-0.1,0.5-0.1,0.7-0.1c0.2,0,0.4,0,0.6,0.1c0.2,0.1,0.4,0.1,0.5,0.2c0.2,0.1,0.3,0.2,0.4,0.3c0.1,0.1,0.2,0.2,0.3,0.3h0.2
					v-1.6c-0.1-0.1-0.3-0.1-0.4-0.2C206.1,187.4,205.9,187.4,205.7,187.3z M222.2,188.6h2.1v5.4h1.7v-5.4h2.1v-1.3h-5.9V188.6z
					 M179.5,238.9c1,0,1.7-0.2,2.3-0.6c0.6-0.4,0.8-0.9,0.8-1.6c0-0.5-0.1-0.8-0.4-1.1c-0.2-0.3-0.6-0.5-1.1-0.7
					c-0.3-0.1-0.5-0.2-0.7-0.2c-0.2,0-0.5-0.1-0.7-0.1c-0.4-0.1-0.6-0.2-0.8-0.3c-0.1-0.1-0.2-0.2-0.2-0.4c0-0.1,0-0.2,0.1-0.3
					c0.1-0.1,0.2-0.2,0.3-0.2c0.1-0.1,0.3-0.1,0.4-0.1c0.1,0,0.3,0,0.4,0c0.4,0,0.8,0.1,1.2,0.2c0.4,0.1,0.7,0.3,1,0.5h0.2v-1.5
					c-0.3-0.1-0.7-0.2-1.1-0.3c-0.4-0.1-0.9-0.1-1.3-0.1c-0.9,0-1.6,0.2-2.2,0.6c-0.6,0.4-0.8,0.9-0.8,1.5c0,0.5,0.1,0.9,0.4,1.2
					c0.2,0.3,0.7,0.6,1.2,0.7c0.2,0.1,0.5,0.1,0.8,0.2c0.3,0.1,0.5,0.1,0.8,0.2c0.2,0.1,0.4,0.1,0.5,0.2c0.1,0.1,0.2,0.2,0.2,0.4
					c0,0.2,0,0.3-0.1,0.4c-0.1,0.1-0.2,0.1-0.3,0.2c-0.1,0-0.2,0.1-0.4,0.1c-0.2,0-0.3,0-0.4,0c-0.4,0-0.8-0.1-1.3-0.2
					c-0.4-0.2-0.8-0.4-1.2-0.7h-0.2v1.6c0.4,0.1,0.7,0.3,1.2,0.4S179,238.9,179.5,238.9z M187.5,192l-1.6-4.7h-1.8l2.4,6.7h1.9
					l2.4-6.7h-1.8L187.5,192z M175.7,187.3h-1.7v6.7h4.8v-1.3h-3.1V187.3z M179.5,188.5h1.1v4.3h-1.1v1.2h3.9v-1.2h-1.1v-4.3h1.1
					v-1.2h-3.9V188.5z"/>
			</g>
		</g>
		<g>
			<path style="fill:#FFFFFF;" d="M232.9,181.3h-63.7c-1.4,0-2.5,1.1-2.5,2.5v58.6c0,1.4,1.1,2.5,2.5,2.5h63.7
				c1.4,0,2.5-1.1,2.5-2.5v-58.6C235.4,182.4,234.2,181.3,232.9,181.3z M234.5,242.4c0,0.9-0.8,1.7-1.7,1.7h-63.7
				c-0.9,0-1.7-0.7-1.7-1.7v-15.5h67V242.4z M234.5,226.1h-67v-25.9h67V226.1z M234.5,199.3h-67v-15.5c0-0.9,0.8-1.7,1.7-1.7h63.7
				c0.9,0,1.7,0.8,1.7,1.7V199.3z"/>
			<path style="fill:#FFFFFF;" d="M232.9,245.4h-63.7c-1.7,0-3-1.4-3-3v-58.6c0-1.7,1.4-3,3-3h63.7c1.7,0,3,1.4,3,3v58.6
				C235.9,244.1,234.5,245.4,232.9,245.4z M168,227.4v15c0,0.6,0.5,1.2,1.2,1.2h63.7c0.6,0,1.2-0.5,1.2-1.2v-15H168z M168,225.6h66
				v-24.9h-66V225.6z M168,198.8h66v-15c0-0.6-0.5-1.2-1.2-1.2h-63.7c-0.6,0-1.2,0.5-1.2,1.2V198.8z"/>
		</g>
	</g>
</g>
</svg>
