<?xml version="1.0" encoding="utf-8"?>
<!-- Generator: Adobe Illustrator 25.2.3, SVG Export Plug-In . SVG Version: 6.00 Build 0)  -->
<svg version="1.1" id="Layer_1" xmlns="http://www.w3.org/2000/svg" xmlns:xlink="http://www.w3.org/1999/xlink" x="0px" y="0px"
	 viewBox="0 0 24 24" style="enable-background:new 0 0 24 24;" xml:space="preserve">
<g>
	<path style="fill:#3C5C99;" d="M12,1.7C6.3,1.7,1.7,6.3,1.7,12c0,5.7,4.6,10.3,10.3,10.3S22.3,17.7,22.3,12
		C22.3,6.3,17.7,1.7,12,1.7z M14.1,11.8c0,0.1,0,0.2,0,0.3c0,0.1,0,0.1-0.1,0.1c-0.3,0-0.7,0-1,0c0,0-0.1,0-0.2,0c0,1.4,0,2.9,0,4.3
		c-0.7,0-1.3,0-1.9,0c0-1.4,0-2.8,0-4.3c-0.1,0-0.1,0-0.1,0c-0.2,0-0.5,0-0.7,0c-0.1,0-0.1,0-0.1-0.1c0-0.4,0-0.9,0-1.3
		c0-0.1,0-0.1,0.1-0.1c0.2,0,0.5,0,0.7,0c0,0,0.1,0,0.1,0c0-0.1,0-0.1,0-0.2c0-0.3,0-0.6,0-1c0.1-0.8,0.6-1.4,1.4-1.6
		c0.1,0,0.2,0,0.3-0.1c0.6,0,1.1,0,1.7,0c0,0.4,0,0.9,0,1.3c0,0,0,0.1,0,0.1c-0.1,0-0.2,0-0.3,0c-0.2,0-0.5,0-0.7,0
		c-0.3,0-0.5,0.1-0.5,0.5c0,0.3,0,0.5,0,0.8c0,0.1,0,0.1,0.1,0.1c0.4,0,0.8,0,1.2,0c0,0,0.1,0,0.1,0C14.1,11.1,14.1,11.4,14.1,11.8z
		"/>
	<g>
		<path style="fill:none;" d="M0,0h24v24H0V0z"/>
	</g>
</g>
</svg>
