<?xml version="1.0" encoding="utf-8"?>
<!-- Generator: Adobe Illustrator 25.2.3, SVG Export Plug-In . SVG Version: 6.00 Build 0)  -->
<svg version="1.1" id="Layer_1" xmlns="http://www.w3.org/2000/svg" xmlns:xlink="http://www.w3.org/1999/xlink" x="0px" y="0px"
	 viewBox="0 0 24 24" style="enable-background:new 0 0 24 24;" xml:space="preserve">
<g>
	<path style="fill:#127AB4;" d="M12,1.7C6.3,1.7,1.7,6.3,1.7,12S6.3,22.3,12,22.3S22.3,17.7,22.3,12S17.7,1.7,12,1.7z M9.8,15.4
		C9.8,15.5,9.8,15.5,9.8,15.4c-0.6,0.1-1.2,0.1-1.8,0.1c-0.1,0-0.1,0-0.1-0.1c0-0.9,0-1.8,0-2.7c0-0.9,0-1.8,0-2.7
		C8,9.9,8,9.9,8,9.9c0.6,0,1.1,0,1.7,0c0.1,0,0.1,0,0.1,0.1C9.8,11.8,9.8,13.6,9.8,15.4z M9.7,8.8C9.6,9,9.5,9.1,9.3,9.1
		C9.2,9.2,9,9.2,8.9,9.2c-0.3,0-0.5,0-0.7-0.2C8,8.9,7.9,8.6,7.9,8.4c0-0.2,0-0.4,0.1-0.6c0.1-0.2,0.3-0.4,0.5-0.5
		c0.2-0.1,0.5-0.1,0.7,0c0.4,0.1,0.7,0.4,0.7,0.8C10,8.4,9.9,8.6,9.7,8.8z M16.4,15.5c-0.6,0-1.2,0-1.7,0c-0.1,0-0.1,0-0.1-0.1
		c0-1,0-1.9,0-2.9c0-0.2,0-0.4-0.1-0.6c0-0.2-0.1-0.3-0.2-0.5c-0.1-0.2-0.3-0.2-0.5-0.3c-0.2,0-0.3,0-0.4,0.1
		c-0.2,0.1-0.3,0.2-0.4,0.3c-0.1,0.1-0.2,0.3-0.2,0.4c0,0.1,0,0.3,0,0.4c0,1,0,2,0,3c0,0.1,0,0.1-0.1,0.1c-0.6,0-1.1,0-1.7,0
		c-0.1,0-0.1,0-0.1-0.1c0-1.4,0-2.9,0-4.3c0-0.4,0-0.8,0-1.1c0-0.1,0-0.1,0.1-0.1c0.6,0,1.2,0,1.7,0c0.1,0,0.1,0,0.1,0.1
		c0,0.2,0,0.4,0,0.7c0,0,0,0,0,0c0,0,0,0,0,0c0,0,0-0.1,0.1-0.1c0.2-0.3,0.4-0.5,0.7-0.6c0.3-0.1,0.6-0.2,0.9-0.2
		c0.2,0,0.4,0,0.6,0.1c0.3,0.1,0.6,0.2,0.8,0.4c0.2,0.2,0.4,0.5,0.5,0.8c0.1,0.4,0.2,0.8,0.2,1.2C16.5,13.4,16.5,14.4,16.4,15.5
		C16.5,15.5,16.5,15.5,16.4,15.5z"/>
	<g>
		<path style="fill:none;" d="M0,0h24v24H0V0z"/>
	</g>
</g>
</svg>
