<?xml version="1.0" encoding="utf-8"?>
<!-- Generator: Adobe Illustrator 25.2.3, SVG Export Plug-In . SVG Version: 6.00 Build 0)  -->
<svg version="1.1" id="Layer_1" xmlns="http://www.w3.org/2000/svg" xmlns:xlink="http://www.w3.org/1999/xlink" x="0px" y="0px"
	 viewBox="0 0 24 24" style="enable-background:new 0 0 24 24;" xml:space="preserve">
<g>
	<path style="fill:#22A7E0;" d="M12,1.7C6.3,1.7,1.7,6.3,1.7,12S6.3,22.3,12,22.3S22.3,17.7,22.3,12S17.7,1.7,12,1.7z M15.3,10.3
		l0,0.2c0,2.2-1.7,4.8-4.8,4.8c-0.9,0-1.8-0.3-2.6-0.8c0.1,0,0.3,0,0.4,0c0.8,0,1.5-0.3,2.1-0.7c-0.7,0-1.4-0.5-1.6-1.2
		c0.1,0,0.2,0,0.3,0c0.2,0,0.3,0,0.4-0.1c-0.8-0.2-1.3-0.8-1.3-1.6v0c0.2,0.1,0.5,0.2,0.8,0.2c-0.5-0.3-0.7-0.8-0.7-1.4
		c0-0.3,0.1-0.6,0.2-0.8c0.8,1,2.1,1.7,3.5,1.8c0-0.1,0-0.3,0-0.4c0-0.9,0.8-1.7,1.7-1.7c0.5,0,0.9,0.2,1.2,0.5
		c0.4-0.1,0.7-0.2,1.1-0.4c-0.1,0.4-0.4,0.7-0.7,0.9c0.3,0,0.7-0.1,1-0.3C15.9,9.8,15.6,10.1,15.3,10.3z"/>
	<g>
		<path style="fill:none;" d="M0,0h24v24H0V0z"/>
	</g>
</g>
</svg>
